<?xml version="1.0" encoding="UTF-8"?>
<svg id="Layer_2" data-name="Layer 2" xmlns="http://www.w3.org/2000/svg" viewBox="0 0 175 175">
  <defs>
    <style>
      .cls-1 {
        fill: none;
        stroke: #ff6c0c;
        stroke-linecap: round;
        stroke-linejoin: round;
        stroke-width: 4.8px;
      }

      .cls-2 {
        fill: #fff;
        stroke-width: 0px;
      }
    </style>
  </defs>
  <g id="Layer_1-2" data-name="Layer 1">
    <g>
      <rect class="cls-2" width="175" height="175"/>
      <g>
        <ellipse class="cls-1" cx="25.03" cy="51.26" rx="14.83" ry="20.19"/>
        <path class="cls-1" d="M25.03,71.45h114.11c8.19,0,14.83-9.04,14.83-20.19s-6.64-20.19-14.83-20.19H25.03"/>
        <ellipse class="cls-1" cx="25.03" cy="51.26" rx="5.62" ry="8.6"/>
        <ellipse class="cls-1" cx="28.93" cy="104.03" rx="14.83" ry="20.19"/>
        <line class="cls-1" x1="61.11" y1="83.84" x2="28.93" y2="83.84"/>
        <path class="cls-1" d="M140.01,124.22h3.02c8.19,0,14.83-9.04,14.83-20.19s-6.64-20.19-14.83-20.19h-5.45"/>
        <line class="cls-1" x1="28.93" y1="124.22" x2="62.9" y2="124.22"/>
        <ellipse class="cls-1" cx="28.93" cy="104.03" rx="5.62" ry="8.6"/>
        <path class="cls-1" d="M118.46,71.45H43.62s19.77,3.57,19.77,21.08v50.49c0,5.15,2.38,10.18,6.74,12.93.45.29.93.56,1.44.81,5.17,2.53,11.62,1.34,15.36-3.04,2.01-2.36,3.52-5.69,2.88-10.22h74.84c.64,4.53-.87,7.86-2.88,10.22-2.39,2.8-5.9,4.3-9.47,4.35h-74.94"/>
        <path class="cls-1" d="M118.46,71.45s19.77,3.57,19.77,21.08v43.9"/>
      </g>
    </g>
  </g>
</svg>