<?xml version="1.0" encoding="UTF-8"?>
<svg id="Layer_2" data-name="Layer 2" xmlns="http://www.w3.org/2000/svg" viewBox="0 0 139.03 136.09">
  <defs>
    <style>
      .cls-1 {
        fill: #ff6c0c;
        stroke-width: 0px;
      }
    </style>
  </defs>
  <g id="Layer_1-2" data-name="Layer 1">
    <g>
      <path class="cls-1" d="M41,52.85c.53.55,1.27.86,2.03.86s1.5-.31,2.03-.86l11.75-12.16c1.09-1.12,1.05-2.91-.07-4-1.12-1.08-2.91-1.05-4,.07l-6.89,7.13V2.83c0-1.56-1.27-2.83-2.83-2.83h0c-1.56,0-2.83,1.27-2.83,2.83v41.07l-6.89-7.13c-1.08-1.12-2.87-1.15-4-.07-1.12,1.09-1.15,2.87-.07,4l11.75,12.16Z"/>
      <path class="cls-1" d="M93.97,52.85c.53.55,1.27.86,2.03.86s1.5-.31,2.03-.86l11.75-12.16c1.09-1.12,1.05-2.91-.07-4-1.12-1.08-2.91-1.05-4,.07l-6.89,7.13V2.83c0-1.56-1.27-2.83-2.83-2.83h0c-1.56,0-2.83,1.27-2.83,2.83v41.07l-6.89-7.13c-1.09-1.12-2.87-1.15-4-.07-1.12,1.09-1.15,2.87-.07,4l11.75,12.16Z"/>
      <path class="cls-1" d="M83.22,54.09c-1.12-1.08-2.91-1.05-4,.07l-6.89,7.13V2.83c0-1.56-1.27-2.83-2.83-2.83h0c-1.56,0-2.83,1.27-2.83,2.83v58.46l-6.89-7.13c-1.09-1.12-2.88-1.15-4-.07-1.12,1.08-1.15,2.87-.07,4l11.75,12.16c.53.55,1.27.86,2.03.86s1.5-.31,2.03-.86l11.75-12.16c1.09-1.12,1.05-2.91-.07-4Z"/>
      <path class="cls-1" d="M39.43,106.8l-21.68-15.05c-7.57-5.25-12.09-13.89-12.09-23.11V20.32c0-1.56-1.27-2.83-2.83-2.83s-2.83,1.27-2.83,2.83v48.32c0,11.07,5.43,21.44,14.52,27.75l21.68,15.05c2.83,1.96,4.52,5.2,4.52,8.64v13.18c0,1.56,1.27,2.83,2.83,2.83s2.83-1.27,2.83-2.83v-13.18c0-5.3-2.6-10.27-6.95-13.29Z"/>
      <path class="cls-1" d="M47.13,95.7l-21.68-15.05c-3.94-2.73-6.29-7.22-6.29-12.01V20.32c0-1.56-1.27-2.83-2.83-2.83s-2.83,1.27-2.83,2.83v48.32c0,6.64,3.26,12.87,8.72,16.66l21.68,15.05c6.47,4.49,10.33,11.87,10.33,19.74v13.18c0,1.56,1.27,2.83,2.83,2.83s2.83-1.27,2.83-2.83v-13.18c0-9.73-4.77-18.84-12.76-24.38Z"/>
      <path class="cls-1" d="M136.2,17.49c-1.56,0-2.83,1.27-2.83,2.83v48.32c0,9.22-4.52,17.86-12.09,23.11l-21.68,15.05c-4.35,3.02-6.95,7.99-6.95,13.29v13.18c0,1.56,1.27,2.83,2.83,2.83s2.83-1.27,2.83-2.83v-13.18c0-3.45,1.69-6.68,4.52-8.64l21.68-15.05c9.09-6.31,14.52-16.69,14.52-27.75V20.32c0-1.56-1.27-2.83-2.83-2.83Z"/>
      <path class="cls-1" d="M116.8,85.3c5.46-3.79,8.72-10.01,8.72-16.66V20.32c0-1.56-1.27-2.83-2.83-2.83s-2.83,1.27-2.83,2.83v48.32c0,4.79-2.35,9.28-6.29,12.01l-21.68,15.05c-7.99,5.54-12.76,14.66-12.76,24.38v13.18c0,1.56,1.27,2.83,2.83,2.83s2.83-1.27,2.83-2.83v-13.18c0-7.87,3.86-15.25,10.33-19.74l21.68-15.05Z"/>
    </g>
  </g>
</svg>