<?xml version="1.0" encoding="UTF-8"?>
<svg id="Layer_2" data-name="Layer 2" xmlns="http://www.w3.org/2000/svg" viewBox="0 0 175 175">
  <defs>
    <style>
      .cls-1 {
        stroke-width: 1.03px;
      }

      .cls-1, .cls-2 {
        fill: #ff6c0c;
        stroke: #ff6c0c;
        stroke-miterlimit: 10;
      }

      .cls-3 {
        fill: #fff;
        stroke-width: 0px;
      }

      .cls-2 {
        stroke-width: .77px;
      }
    </style>
  </defs>
  <g id="Layer_1-2" data-name="Layer 1">
    <g>
      <rect class="cls-3" width="175" height="175"/>
      <g>
        <path class="cls-2" d="M169.56,154.62h-26.99v-84.42c0-.95-.77-1.72-1.72-1.72s-1.72.77-1.72,1.72v55.71h-2.75l-13.98-44.73s-.02-.05-.03-.07c-.02-.06-.05-.12-.07-.17-.02-.05-.05-.09-.07-.14-.03-.05-.06-.1-.1-.14-.03-.04-.07-.09-.11-.13-.04-.04-.08-.08-.12-.11s-.08-.07-.13-.1c-.05-.03-.09-.06-.14-.09-.05-.03-.09-.05-.14-.08-.05-.02-.1-.04-.16-.06-.05-.02-.11-.04-.16-.05-.05-.01-.1-.02-.15-.03-.06,0-.13-.02-.19-.02-.03,0-.05,0-.08,0h-25.84c-.95,0-1.72.77-1.72,1.72v32.73h-15.51c-2.53,0-4.59,2.06-4.59,4.59v22.97c0,2.53,2.06,4.59,4.59,4.59h4.09c-.04.38-.07.76-.07,1.15,0,5.7,4.64,10.34,10.34,10.34s10.34-4.64,10.34-10.34c0-.39-.03-.77-.07-1.15h13.92c-.04.38-.07.76-.07,1.15,0,5.7,4.64,10.34,10.34,10.34s10.34-4.64,10.34-10.34c0-.39-.03-.77-.07-1.15h2.36v9.76c0,.95.77,1.72,1.72,1.72h28.71c.95,0,1.72-.77,1.72-1.72s-.77-1.72-1.72-1.72ZM96.62,83.41h22.85l13.28,42.5h-14.43l-20.1-11.49h-1.61s0-31.01,0-31.01ZM92.03,154.62c-3.8,0-6.89-3.09-6.89-6.89s3.09-6.89,6.89-6.89,6.89,3.09,6.89,6.89-3.09,6.89-6.89,6.89ZM126.48,154.62c-3.8,0-6.89-3.09-6.89-6.89s3.09-6.89,6.89-6.89,6.89,3.09,6.89,6.89-3.09,6.89-6.89,6.89ZM135.73,143.14c-1.7-3.4-5.2-5.74-9.25-5.74s-7.55,2.34-9.25,5.74h-15.97c-1.7-3.4-5.2-5.74-9.25-5.74s-7.55,2.34-9.25,5.74h-5.11c-.63,0-1.15-.51-1.15-1.15v-22.97c0-.63.52-1.15,1.15-1.15h19.64l20.1,11.49h21.71v13.78h-3.39Z"/>
        <g>
          <path class="cls-1" d="M51.92,28.41c-14.12,0-25.62,11.49-25.62,25.62s11.49,25.62,25.62,25.62,25.62-11.49,25.62-25.62-11.49-25.62-25.62-25.62ZM51.92,76.63c-12.46,0-22.6-10.14-22.6-22.6s10.14-22.6,22.6-22.6,22.6,10.14,22.6,22.6-10.14,22.6-22.6,22.6Z"/>
          <path class="cls-1" d="M22.44,54.03c0-.83-.67-1.51-1.51-1.51H5.21c-.83,0-1.5.69-1.49,1.52,0,.82.67,1.48,1.49,1.49h15.72c.83,0,1.51-.67,1.51-1.51h0Z"/>
          <path class="cls-1" d="M24.33,68.22l-6.81,3.93c-.72.42-.97,1.34-.55,2.06.42.72,1.34.97,2.06.55h0l6.81-3.93c.72-.42.96-1.35.53-2.06-.42-.71-1.32-.95-2.04-.55h0Z"/>
          <path class="cls-1" d="M51.92,83.51c-.83,0-1.51.67-1.51,1.51h0v7.86c0,.83.68,1.51,1.51,1.5.83,0,1.5-.67,1.5-1.5v-7.86c0-.83-.67-1.51-1.51-1.51h0Z"/>
          <path class="cls-1" d="M86.32,72.15l-6.81-3.93c-.72-.41-1.64-.15-2.05.57-.4.72-.16,1.62.55,2.04l6.81,3.93c.72.42,1.64.17,2.06-.55s.17-1.64-.55-2.06h0Z"/>
          <path class="cls-1" d="M78.76,40.04c.26,0,.52-.07.75-.2l6.81-3.93c.72-.42.97-1.34.55-2.06-.42-.72-1.34-.97-2.06-.55l-6.81,3.93c-.72.42-.97,1.34-.55,2.06.27.47.77.75,1.31.75h0Z"/>
          <path class="cls-1" d="M51.92,24.54c.83,0,1.51-.67,1.51-1.51h0v-7.86c0-.83-.68-1.51-1.51-1.5-.83,0-1.5.67-1.5,1.5v7.86c0,.83.67,1.51,1.51,1.51h0Z"/>
          <path class="cls-1" d="M17.52,35.91l6.81,3.93c.72.42,1.64.17,2.06-.55.42-.72.17-1.64-.55-2.06h0l-6.81-3.93c-.72-.42-1.64-.17-2.06.55-.42.72-.17,1.64.55,2.06h0Z"/>
          <path class="cls-1" d="M37.18,79.56c-.72-.42-1.64-.17-2.06.55l-7.86,13.61c-.42.72-.17,1.64.55,2.06.72.42,1.64.17,2.06-.55l7.86-13.61c.42-.72.17-1.64-.55-2.06Z"/>
          <path class="cls-1" d="M68.72,80.11c-.42-.72-1.34-.97-2.06-.55s-.97,1.34-.55,2.06l7.86,13.61c.42.72,1.34.97,2.06.55s.97-1.34.55-2.06l-7.86-13.61Z"/>
          <path class="cls-1" d="M98.63,52.52h-15.72c-.83,0-1.51.66-1.52,1.49,0,.83.66,1.51,1.49,1.52,0,0,.02,0,.03,0h15.72c.83,0,1.5-.69,1.49-1.52,0-.82-.67-1.48-1.49-1.49Z"/>
          <path class="cls-1" d="M66.66,28.49c.72.42,1.64.17,2.06-.55l7.86-13.61c.42-.72.17-1.64-.55-2.06-.72-.42-1.64-.17-2.06.55l-7.86,13.61c-.42.72-.17,1.64.55,2.06Z"/>
          <path class="cls-1" d="M35.12,27.94c.42.72,1.34.97,2.06.55.72-.42.97-1.34.55-2.06l-7.86-13.61c-.42-.72-1.34-.97-2.06-.55-.72.42-.97,1.34-.55,2.06l7.86,13.61Z"/>
        </g>
      </g>
    </g>
  </g>
</svg>