<?xml version="1.0" encoding="UTF-8"?>
<svg id="Layer_2" data-name="Layer 2" xmlns="http://www.w3.org/2000/svg" viewBox="0 0 175 175">
  <defs>
    <style>
      .cls-1 {
        fill: #ff6c0c;
      }

      .cls-1, .cls-2 {
        stroke-width: 0px;
      }

      .cls-2 {
        fill: #fff;
      }
    </style>
  </defs>
  <g id="Layer_1-2" data-name="Layer 1">
    <g>
      <rect class="cls-2" width="175" height="175"/>
      <g id="Layer_1-2" data-name="Layer 1-2">
        <g>
          <path class="cls-1" d="M59.4,76.03c.52.54,1.25.85,2,.85s1.48-.31,2-.85l11.58-11.98c1.07-1.1,1.03-2.87-.07-3.94-1.1-1.06-2.87-1.03-3.94.07l-6.79,7.03V26.74c0-1.54-1.25-2.79-2.79-2.79h0c-1.54,0-2.79,1.25-2.79,2.79v40.47l-6.79-7.03c-1.06-1.1-2.83-1.13-3.94-.07-1.1,1.07-1.13,2.83-.07,3.94l11.58,11.98h.02Z"/>
          <path class="cls-1" d="M111.6,76.03c.52.54,1.25.85,2,.85s1.48-.31,2-.85l11.58-11.98c1.07-1.1,1.03-2.87-.07-3.94-1.1-1.06-2.87-1.03-3.94.07l-6.79,7.03V26.74c0-1.54-1.25-2.79-2.79-2.79h0c-1.54,0-2.79,1.25-2.79,2.79v40.47l-6.79-7.03c-1.07-1.1-2.83-1.13-3.94-.07-1.1,1.07-1.13,2.83-.07,3.94l11.58,11.98h.02Z"/>
          <path class="cls-1" d="M101,77.25c-1.1-1.06-2.87-1.03-3.94.07l-6.79,7.03V26.74c0-1.54-1.25-2.79-2.79-2.79h0c-1.54,0-2.79,1.25-2.79,2.79v57.61l-6.79-7.03c-1.07-1.1-2.84-1.13-3.94-.07s-1.13,2.83-.07,3.94l11.58,11.98c.52.54,1.25.85,2,.85s1.48-.31,2-.85l11.58-11.98c1.07-1.1,1.03-2.87-.07-3.94h.02Z"/>
          <path class="cls-1" d="M57.85,129.19l-21.36-14.83c-7.46-5.17-11.91-13.69-11.91-22.77v-47.61c0-1.54-1.25-2.79-2.79-2.79s-2.79,1.25-2.79,2.79v47.61c0,10.91,5.35,21.13,14.31,27.34l21.36,14.83c2.79,1.93,4.45,5.12,4.45,8.51v12.99c0,1.54,1.25,2.79,2.79,2.79s2.79-1.25,2.79-2.79v-12.99c0-5.22-2.56-10.12-6.85-13.1h0Z"/>
          <path class="cls-1" d="M65.44,118.26l-21.36-14.83c-3.88-2.69-6.2-7.11-6.2-11.83v-47.61c0-1.54-1.25-2.79-2.79-2.79s-2.79,1.25-2.79,2.79v47.61c0,6.54,3.21,12.68,8.59,16.42l21.36,14.83c6.38,4.42,10.18,11.7,10.18,19.45v12.99c0,1.54,1.25,2.79,2.79,2.79s2.79-1.25,2.79-2.79v-12.99c0-9.59-4.7-18.56-12.57-24.02h0Z"/>
          <path class="cls-1" d="M153.21,41.19c-1.54,0-2.79,1.25-2.79,2.79v47.61c0,9.09-4.45,17.6-11.91,22.77l-21.36,14.83c-4.29,2.98-6.85,7.87-6.85,13.1v12.99c0,1.54,1.25,2.79,2.79,2.79s2.79-1.25,2.79-2.79v-12.99c0-3.4,1.67-6.58,4.45-8.51l21.36-14.83c8.96-6.22,14.31-16.45,14.31-27.34v-47.62c0-1.54-1.25-2.79-2.79-2.79Z"/>
          <path class="cls-1" d="M134.09,108.01c5.38-3.73,8.59-9.86,8.59-16.42v-47.61c0-1.54-1.25-2.79-2.79-2.79s-2.79,1.25-2.79,2.79v47.61c0,4.72-2.32,9.14-6.2,11.83l-21.36,14.83c-7.87,5.46-12.57,14.45-12.57,24.02v12.99c0,1.54,1.25,2.79,2.79,2.79s2.79-1.25,2.79-2.79v-12.99c0-7.76,3.8-15.03,10.18-19.45l21.36-14.83h0Z"/>
        </g>
      </g>
    </g>
  </g>
</svg>