<?xml version="1.0" encoding="UTF-8"?>
<svg id="Layer_2" data-name="Layer 2" xmlns="http://www.w3.org/2000/svg" viewBox="0 0 175 175">
  <defs>
    <style>
      .cls-1 {
        fill: #fff;
      }

      .cls-1, .cls-2 {
        stroke-width: 0px;
      }

      .cls-2 {
        fill: #ff6c0c;
      }
    </style>
  </defs>
  <g id="Layer_1-2" data-name="Layer 1">
    <g>
      <rect class="cls-1" width="175" height="175"/>
      <g>
        <g>
          <path class="cls-2" d="M60.34,54.68c-10.81,0-20.99-.94-28.68-2.66-9.01-2.01-13.39-4.76-13.39-8.42s4.38-6.41,13.39-8.42c7.68-1.71,17.87-2.66,28.68-2.66s20.99.94,28.68,2.66c9.01,2.01,13.39,4.76,13.39,8.42s-4.38,6.41-13.39,8.42c-7.68,1.71-17.87,2.66-28.68,2.66ZM22.65,43.61c.14.26,1.55,2.38,10.69,4.31,7.3,1.54,16.88,2.39,26.99,2.39s19.7-.85,26.99-2.39c9.14-1.93,10.55-4.05,10.69-4.31-.14-.26-1.55-2.38-10.69-4.31-7.3-1.54-16.88-2.39-26.99-2.39s-19.7.85-26.99,2.39c-9.14,1.93-10.55,4.05-10.69,4.31ZM98.04,43.63h0,0Z"/>
          <path class="cls-2" d="M60.34,89.13c-11.22,0-21.79-.94-29.77-2.65-9.33-2-13.87-4.76-13.87-8.42,0-1.21.98-2.18,2.18-2.18s2.17.96,2.18,2.15c.22.6,2.71,2.63,11.31,4.37,7.58,1.53,17.5,2.37,27.96,2.37s20.38-.84,27.96-2.37c8.6-1.73,11.09-3.77,11.31-4.37.02-1.19.99-2.15,2.18-2.15s2.18.98,2.18,2.18c0,3.67-4.54,6.42-13.87,8.42-7.97,1.71-18.55,2.65-29.77,2.65Z"/>
          <path class="cls-2" d="M60.34,123.6c-11.22,0-21.79-.94-29.77-2.65-9.33-2-13.87-4.76-13.87-8.42,0-1.21.98-2.18,2.18-2.18s2.17.96,2.18,2.15c.22.6,2.71,2.63,11.31,4.37,7.58,1.53,17.5,2.37,27.96,2.37s20.38-.84,27.96-2.37c8.6-1.73,11.09-3.77,11.31-4.37.02-1.19.99-2.15,2.18-2.15s2.18.98,2.18,2.18c0,3.67-4.54,6.42-13.87,8.42-7.97,1.71-18.55,2.65-29.77,2.65Z"/>
          <path class="cls-2" d="M20.45,82.67c-1.21,0-2.18-.98-2.18-2.18v-36.89c0-1.21.98-2.18,2.18-2.18s2.18.98,2.18,2.18v36.89c0,1.21-.98,2.18-2.18,2.18Z"/>
          <path class="cls-2" d="M20.45,117.14c-1.21,0-2.18-.98-2.18-2.18v-25.81c0-1.21.98-2.18,2.18-2.18s2.18.98,2.18,2.18v25.81c0,1.21-.98,2.18-2.18,2.18Z"/>
          <path class="cls-2" d="M60.34,158.07c-10.81,0-20.99-.94-28.68-2.66-9.01-2.01-13.39-4.76-13.39-8.42v-23.27c0-1.21.98-2.18,2.18-2.18s2.18.98,2.18,2.18v23.27h0s.99,2.26,10.7,4.31c7.3,1.54,16.88,2.39,26.99,2.39s19.7-.85,26.99-2.39c9.72-2.06,10.7-4.32,10.71-4.34v-23.24c0-1.21.98-2.18,2.18-2.18s2.18.98,2.18,2.18v23.27c0,3.66-4.38,6.41-13.39,8.42-7.68,1.71-17.87,2.66-28.68,2.66Z"/>
          <path class="cls-2" d="M100.22,117.14c-1.21,0-2.18-.98-2.18-2.18v-25.81c0-1.21.98-2.18,2.18-2.18s2.18.98,2.18,2.18v25.81c0,1.21-.98,2.18-2.18,2.18Z"/>
          <path class="cls-2" d="M100.22,82.67c-1.21,0-2.18-.98-2.18-2.18v-36.89c0-1.21.98-2.18,2.18-2.18s2.18.98,2.18,2.18v36.89c0,1.21-.98,2.18-2.18,2.18Z"/>
          <ellipse class="cls-2" cx="82.32" cy="43.61" rx="6.6" ry="2.96"/>
        </g>
        <g>
          <path class="cls-2" d="M117.26,35.57c-10.14,0-19.7-.89-26.91-2.49-8.52-1.9-12.66-4.52-12.66-8.02s4.14-6.12,12.66-8.02c7.21-1.61,16.77-2.49,26.91-2.49s19.7.89,26.91,2.49c8.52,1.9,12.66,4.52,12.66,8.02s-4.14,6.13-12.66,8.02c-7.21,1.61-16.77,2.49-26.91,2.49ZM82.08,25.06c.33.61,2.7,2.41,10.15,3.96,6.8,1.41,15.69,2.19,25.03,2.19s18.23-.78,25.03-2.19c7.46-1.55,9.82-3.35,10.15-3.96-.33-.61-2.7-2.41-10.15-3.96-6.8-1.41-15.69-2.19-25.03-2.19s-18.23.78-25.03,2.19c-7.46,1.55-9.82,3.35-10.15,3.96ZM152.47,25.12h0,0Z"/>
          <path class="cls-2" d="M117.26,67.87c-2.67,0-5.33-.06-7.93-.17-1.2-.05-2.14-1.07-2.09-2.28.05-1.2,1.07-2.14,2.28-2.09,2.53.11,5.13.17,7.73.17,9.68,0,18.9-.77,25.96-2.18,9.13-1.81,10.57-3.82,10.71-4.04.04-1.17,1-2.12,2.18-2.12s2.18.98,2.18,2.18c0,3.51-4.29,6.14-13.11,8.03-7.48,1.61-17.4,2.49-27.93,2.49Z"/>
          <path class="cls-2" d="M148.41,96.83c-.95,0-1.82-.62-2.1-1.58-.33-1.16.34-2.37,1.5-2.7,5.09-1.46,6.01-2.77,6.12-2.95.04-1.17,1-2.12,2.18-2.12s2.18.98,2.18,2.18c0,2.97-3.03,5.28-9.28,7.08-.2.06-.4.09-.6.09ZM153.93,89.66h0s0,0,0,0Z"/>
          <path class="cls-2" d="M79.87,32.06c-1.21,0-2.18-.98-2.18-2.18v-4.83c0-1.21.98-2.18,2.18-2.18s2.18.98,2.18,2.18v4.83c0,1.21-.98,2.18-2.18,2.18Z"/>
          <path class="cls-2" d="M154.64,94.12c-1.21,0-2.18-.98-2.18-2.18v-24.19c0-1.21.98-2.18,2.18-2.18s2.18.98,2.18,2.18v24.19c0,1.21-.98,2.18-2.18,2.18Z"/>
          <path class="cls-2" d="M154.64,61.81c-1.21,0-2.18-.98-2.18-2.18V25.04c0-1.21.98-2.18,2.18-2.18s2.18.98,2.18,2.18v34.58c0,1.21-.98,2.18-2.18,2.18Z"/>
          <ellipse class="cls-2" cx="137.87" cy="25.06" rx="6.18" ry="2.78"/>
        </g>
        <path class="cls-2" d="M131.69,147.2c-11.99,0-21.75-9.76-21.75-21.75,0-9.22,6.14-20.33,12.08-31.07,3.04-5.5,5.91-10.69,7.64-15.12.33-.84,1.13-1.39,2.03-1.39h0c.9,0,1.71.55,2.03,1.39,1.66,4.24,4.48,9.35,7.47,14.75,5.74,10.39,12.25,22.17,12.25,31.45,0,11.99-9.76,21.75-21.75,21.75ZM131.69,85.44c-1.67,3.47-3.72,7.18-5.86,11.04-5.41,9.78-11.53,20.87-11.53,28.96,0,9.59,7.8,17.39,17.39,17.39s17.38-7.8,17.38-17.39c0-8.15-6.22-19.4-11.71-29.33-2.07-3.74-4.06-7.34-5.67-10.67Z"/>
        <path class="cls-2" d="M140.1,133.68c-.38,0-.77-.1-1.12-.31-1.04-.62-1.37-1.96-.76-2.99,1.96-3.28.77-8.45-.57-12.2-1.55-4.34-3.65-7.79-3.67-7.83-.63-1.03-.31-2.37.72-3,1.03-.63,2.37-.31,3,.72.1.16,2.36,3.88,4.06,8.64,2.41,6.75,2.48,12.1.2,15.91-.41.68-1.13,1.06-1.88,1.06Z"/>
      </g>
    </g>
  </g>
</svg>