<?xml version="1.0" encoding="UTF-8"?>
<svg id="Layer_2" data-name="Layer 2" xmlns="http://www.w3.org/2000/svg" viewBox="0 0 175 175">
  <defs>
    <style>
      .cls-1 {
        fill: none;
        stroke-linecap: round;
        stroke-linejoin: round;
        stroke-width: 4.64px;
      }

      .cls-1, .cls-2 {
        stroke: #ff6c0c;
      }

      .cls-2 {
        fill: #ff6c0c;
        stroke-miterlimit: 10;
        stroke-width: .93px;
      }

      .cls-3 {
        fill: #fff;
        stroke-width: 0px;
      }
    </style>
  </defs>
  <g id="Layer_1-2" data-name="Layer 1">
    <g>
      <rect class="cls-3" width="175" height="175"/>
      <g>
        <path class="cls-2" d="M131.77,145.06h-23.05v-72.09c0-.81-.66-1.47-1.47-1.47s-1.47.66-1.47,1.47v47.57h-2.35l-11.94-38.2s-.02-.04-.03-.06c-.02-.05-.04-.1-.06-.15-.02-.04-.04-.08-.06-.12-.02-.04-.05-.08-.08-.12-.03-.04-.06-.07-.09-.11-.03-.03-.07-.07-.1-.1s-.07-.06-.11-.09c-.04-.03-.08-.05-.12-.08-.04-.02-.08-.05-.12-.07-.04-.02-.09-.04-.13-.05-.05-.02-.09-.03-.14-.04-.04-.01-.09-.02-.13-.03-.05,0-.11-.01-.16-.02-.02,0-.04,0-.07,0h-22.07c-.81,0-1.47.66-1.47,1.47v27.95h-13.24c-2.16,0-3.92,1.76-3.92,3.92v19.62c0,2.16,1.76,3.92,3.92,3.92h3.49c-.04.32-.06.65-.06.98,0,4.87,3.96,8.83,8.83,8.83s8.83-3.96,8.83-8.83c0-.33-.02-.66-.06-.98h11.88c-.04.32-.06.65-.06.98,0,4.87,3.96,8.83,8.83,8.83s8.83-3.96,8.83-8.83c0-.33-.02-.66-.06-.98h2.02v8.34c0,.81.66,1.47,1.47,1.47h24.52c.81,0,1.47-.66,1.47-1.47s-.66-1.47-1.47-1.47ZM69.49,84.26h19.51l11.34,36.29h-12.32l-17.16-9.81h-1.37s0-26.48,0-26.48ZM65.56,145.06c-3.25,0-5.88-2.64-5.88-5.88s2.64-5.88,5.88-5.88,5.88,2.64,5.88,5.88-2.64,5.88-5.88,5.88ZM94.99,145.06c-3.25,0-5.88-2.64-5.88-5.88s2.64-5.88,5.88-5.88,5.88,2.64,5.88,5.88-2.64,5.88-5.88,5.88ZM102.88,135.26c-1.45-2.9-4.44-4.9-7.9-4.9s-6.45,2-7.9,4.9h-13.63c-1.45-2.9-4.44-4.9-7.9-4.9s-6.45,2-7.9,4.9h-4.36c-.54,0-.98-.44-.98-.98v-19.62c0-.54.44-.98.98-.98h16.77l17.16,9.81h18.53v11.77h-2.89Z"/>
        <g>
          <polyline class="cls-1" points="10.87 85.45 87.51 35.87 164.13 85.45"/>
          <line class="cls-1" x1="142.66" y1="157.17" x2="142.66" y2="71.55"/>
          <line class="cls-1" x1="32.33" y1="71.56" x2="32.33" y2="157.17"/>
          <line class="cls-1" x1="17.2" y1="158.07" x2="159.8" y2="158.07"/>
        </g>
      </g>
    </g>
  </g>
</svg>