<?xml version="1.0" encoding="UTF-8"?>
<svg id="Layer_2" data-name="Layer 2" xmlns="http://www.w3.org/2000/svg" viewBox="0 0 175 175">
  <defs>
    <style>
      .cls-1 {
        stroke-miterlimit: 10;
      }

      .cls-1, .cls-2 {
        fill: none;
        stroke: #ff6c0c;
        stroke-width: 5.52px;
      }

      .cls-2 {
        stroke-linejoin: round;
      }

      .cls-3 {
        fill: #fff;
        stroke-width: 0px;
      }
    </style>
  </defs>
  <g id="Layer_1-2" data-name="Layer 1">
    <g>
      <rect class="cls-3" width="175" height="175"/>
      <g id="Layer_1-2" data-name="Layer 1-2">
        <g>
          <path class="cls-1" d="M103.93,40.43c0,9.04-7.32,16.36-16.36,16.36s-16.36-7.32-16.36-16.36,7.32-16.36,16.36-16.36,16.36,7.32,16.36,16.36Z"/>
          <path class="cls-1" d="M126.7,56.79c3.26,0,6.13,2.2,6.94,5.37l22.66,86.91c1.19,4.55-2.25,8.99-6.94,8.99H25.64c-4.69,0-8.13-4.44-6.94-8.99l22.65-86.92c.83-3.16,3.68-5.37,6.94-5.37h78.41Z"/>
          <path class="cls-2" d="M100.57,125.39h0c0,3.61,2.93,6.54,6.54,6.54h7.39c3.14,0,5.68-2.54,5.68-5.68v-.02c0-2.45-1.57-4.62-3.89-5.39l-11.83-3.94c-2.32-.77-3.89-2.95-3.89-5.39v-.02c0-3.14,2.54-5.68,5.68-5.68h7.39c3.61,0,6.54,2.93,6.54,6.54h0"/>
          <line class="cls-2" x1="58.09" y1="89.46" x2="58.09" y2="135.2"/>
          <line class="cls-2" x1="71.16" y1="89.46" x2="71.16" y2="135.2"/>
          <path class="cls-2" d="M90.76,115.59c0-5.42-4.39-9.8-9.8-9.8h0c-5.42,0-9.8,4.39-9.8,9.8v6.54c0,5.42,4.39,9.8,9.8,9.8h0c5.42,0,9.8-4.39,9.8-9.8v-6.54Z"/>
        </g>
      </g>
    </g>
  </g>
</svg>