<?xml version="1.0" encoding="UTF-8"?>
<svg id="Layer_2" data-name="Layer 2" xmlns="http://www.w3.org/2000/svg" viewBox="0 0 175 175">
  <defs>
    <style>
      .cls-1 {
        fill: #fff;
      }

      .cls-1, .cls-2 {
        stroke-width: 0px;
      }

      .cls-2 {
        fill: #ff6c0c;
      }
    </style>
  </defs>
  <g id="Layer_1-2" data-name="Layer 1">
    <g>
      <rect class="cls-1" width="175" height="175"/>
      <g>
        <path class="cls-2" d="M157.16,99.03c0,1.63-1.32,2.95-2.95,2.95h-8.86v-23.61h8.86c1.63,0,2.95,1.32,2.95,2.95v17.71h0ZM139.45,107.89c0,1.63-1.32,2.95-2.95,2.95H62.11c-1.63,0-2.95-1.32-2.95-2.95v-35.42c0-1.63,1.32-2.95,2.95-2.95h74.39c1.63,0,2.95,1.32,2.95,2.95v35.42h0ZM118.97,140.36h-39.12c4.16-7.29,4.16-16.32,0-23.62h39.12c-4.16,7.29-4.16,16.33,0,23.62h0ZM44.4,101.98c-13.65,0-24.93-10.35-26.4-23.61h35.26v23.61h-8.86ZM154.21,72.46h-8.86c0-4.88-3.97-8.86-8.86-8.86H62.11c-4.88,0-8.86,3.97-8.86,8.86H14.89c-1.63,0-2.95,1.32-2.95,2.95,0,17.9,14.57,32.47,32.47,32.47h8.86c0,4.88,3.97,8.86,8.86,8.86h10.52c5.91,6.74,5.91,16.88,0,23.61h-4.62c-8.15,0-14.76,6.61-14.76,14.76,0,1.63,1.32,2.95,2.95,2.95h29.81c1.63,0,2.95-1.32,2.95-2.95s-1.32-2.95-2.95-2.95h-26.36c1.19-3.37,4.43-5.9,8.35-5.9h62.58c3.85,0,7.13,2.47,8.35,5.9h-26.36c-1.63,0-2.95,1.32-2.95,2.95s1.32,2.95,2.95,2.95h29.81c1.63,0,2.95-1.32,2.95-2.95,0-8.14-6.62-14.76-14.76-14.76h-4.41c-5.93-6.75-5.93-16.86,0-23.61h10.31c4.88,0,8.86-3.97,8.86-8.86h8.86c4.88,0,8.86-3.97,8.86-8.86v-17.71c0-4.88-3.97-8.86-8.86-8.86h0Z"/>
        <path class="cls-2" d="M66.84,35.27v-5.9h26.57v5.9h-26.57ZM28.46,32.32c0-1.63,1.32-2.95,2.95-2.95h29.52v5.9h-29.52c-1.63,0-2.95-1.32-2.95-2.95h0ZM99.31,12.84h20.66v38.96h-20.66V12.84h0ZM96.36,57.7h26.57c1.63,0,2.95-1.32,2.95-2.95V9.89c0-1.63-1.32-2.95-2.95-2.95h-26.57c-1.63,0-2.95,1.32-2.95,2.95v13.58H31.42c-4.89,0-8.86,3.96-8.86,8.86s3.97,8.86,8.86,8.86h61.99v13.58c0,1.63,1.32,2.95,2.95,2.95h0Z"/>
        <path class="cls-2" d="M99.31,152.16c1.63,0,2.95,1.32,2.95,2.95s-1.32,2.95-2.95,2.95-2.95-1.32-2.95-2.95,1.32-2.95,2.95-2.95h0Z"/>
      </g>
    </g>
  </g>
</svg>