<svg width="688" height="204" viewBox="0 0 688 204" fill="none" xmlns="http://www.w3.org/2000/svg">
<path d="M29.3145 82V8.49999H54.0945V82H29.3145ZM64.8685 82V8.49999H85.2385L122.618 53.23H113.168V8.49999H137.318V82H116.948L79.5685 37.27H89.0185V82H64.8685ZM171.203 82L140.123 8.49999H166.793L192.098 70.555H176.243L202.283 8.49999H226.643L195.563 82H171.203ZM250.634 35.8H283.394V53.65H250.634V35.8ZM252.314 63.31H289.064V82H227.954V8.49999H287.699V27.19H252.314V63.31ZM297.448 82V8.49999H317.818L355.198 53.23H345.748V8.49999H369.898V82H349.528L312.148 37.27H321.598V82H297.448ZM396.643 82V27.715H375.118V8.49999H442.948V27.715H421.423V82H396.643ZM485.739 83.68C479.789 83.68 474.259 82.735 469.149 80.845C464.109 78.955 459.734 76.295 456.024 72.865C452.314 69.365 449.409 65.27 447.309 60.58C445.279 55.89 444.264 50.78 444.264 45.25C444.264 39.65 445.279 34.54 447.309 29.92C449.409 25.23 452.314 21.17 456.024 17.74C459.734 14.24 464.109 11.545 469.149 9.655C474.259 7.765 479.789 6.82 485.739 6.82C491.759 6.82 497.289 7.765 502.329 9.655C507.369 11.545 511.744 14.24 515.454 17.74C519.164 21.17 522.034 25.23 524.064 29.92C526.164 34.54 527.214 39.65 527.214 45.25C527.214 50.78 526.164 55.89 524.064 60.58C522.034 65.27 519.164 69.365 515.454 72.865C511.744 76.295 507.369 78.955 502.329 80.845C497.289 82.735 491.759 83.68 485.739 83.68ZM485.739 63.625C488.049 63.625 490.184 63.205 492.144 62.365C494.174 61.525 495.924 60.335 497.394 58.795C498.934 57.185 500.124 55.26 500.964 53.02C501.804 50.71 502.224 48.12 502.224 45.25C502.224 42.38 501.804 39.825 500.964 37.585C500.124 35.275 498.934 33.35 497.394 31.81C495.924 30.2 494.174 28.975 492.144 28.135C490.184 27.295 488.049 26.875 485.739 26.875C483.429 26.875 481.259 27.295 479.229 28.135C477.269 28.975 475.519 30.2 473.979 31.81C472.509 33.35 471.354 35.275 470.514 37.585C469.674 39.825 469.254 42.38 469.254 45.25C469.254 48.12 469.674 50.71 470.514 53.02C471.354 55.26 472.509 57.185 473.979 58.795C475.519 60.335 477.269 61.525 479.229 62.365C481.259 63.205 483.429 63.625 485.739 63.625ZM535.053 82V8.49999H570.438C577.298 8.49999 583.213 9.62 588.183 11.86C593.223 14.1 597.108 17.32 599.838 21.52C602.568 25.65 603.933 30.55 603.933 36.22C603.933 41.89 602.568 46.79 599.838 50.92C597.108 54.98 593.223 58.095 588.183 60.265C583.213 62.435 577.298 63.52 570.438 63.52H548.808L559.833 53.335V82H535.053ZM579.048 82L560.988 55.225H587.238L605.508 82H579.048ZM559.833 56.065L548.808 44.83H568.863C572.293 44.83 574.813 44.06 576.423 42.52C578.103 40.98 578.943 38.88 578.943 36.22C578.943 33.56 578.103 31.46 576.423 29.92C574.813 28.38 572.293 27.61 568.863 27.61H548.808L559.833 16.375V56.065ZM630.01 82V49.765L635.68 64.57L602.29 8.49999H628.435L651.01 46.825H635.785L658.57 8.49999H682.51L649.33 64.57L654.79 49.765V82H630.01Z" fill="white"/>
<path d="M45.5203 171.68C39.6403 171.68 34.1803 170.77 29.1403 168.95C24.1703 167.06 19.8303 164.4 16.1203 160.97C12.4803 157.54 9.64527 153.48 7.61527 148.79C5.58527 144.1 4.57027 138.92 4.57027 133.25C4.57027 127.58 5.58527 122.4 7.61527 117.71C9.64527 113.02 12.4803 108.96 16.1203 105.53C19.8303 102.1 24.1703 99.475 29.1403 97.655C34.1803 95.765 39.6403 94.82 45.5203 94.82C52.7303 94.82 59.1003 96.08 64.6303 98.6C70.2303 101.12 74.8503 104.76 78.4903 109.52L62.8453 123.485C60.6753 120.755 58.2603 118.655 55.6003 117.185C53.0103 115.645 50.0703 114.875 46.7803 114.875C44.1903 114.875 41.8453 115.295 39.7453 116.135C37.6453 116.975 35.8253 118.2 34.2853 119.81C32.8153 121.42 31.6603 123.38 30.8203 125.69C29.9803 127.93 29.5603 130.45 29.5603 133.25C29.5603 136.05 29.9803 138.605 30.8203 140.915C31.6603 143.155 32.8153 145.08 34.2853 146.69C35.8253 148.3 37.6453 149.525 39.7453 150.365C41.8453 151.205 44.1903 151.625 46.7803 151.625C50.0703 151.625 53.0103 150.89 55.6003 149.42C58.2603 147.88 60.6753 145.745 62.8453 143.015L78.4903 156.98C74.8503 161.67 70.2303 165.31 64.6303 167.9C59.1003 170.42 52.7303 171.68 45.5203 171.68ZM84.49 170V96.5H109.27V150.785H142.45V170H84.49ZM170.82 123.8H203.58V141.65H170.82V123.8ZM172.5 151.31H209.25V170H148.14V96.5H207.885V115.19H172.5V151.31ZM209.654 170L241.784 96.5H266.144L298.274 170H272.654L248.924 108.26H258.584L234.854 170H209.654ZM228.764 157.19L235.064 139.34H268.874L275.174 157.19H228.764ZM301.074 170V96.5H336.459C343.319 96.5 349.234 97.62 354.204 99.86C359.244 102.1 363.129 105.32 365.859 109.52C368.589 113.65 369.954 118.55 369.954 124.22C369.954 129.89 368.589 134.79 365.859 138.92C363.129 142.98 359.244 146.095 354.204 148.265C349.234 150.435 343.319 151.52 336.459 151.52H314.829L325.854 141.335V170H301.074ZM345.069 170L327.009 143.225H353.259L371.529 170H345.069ZM325.854 144.065L314.829 132.83H334.884C338.314 132.83 340.834 132.06 342.444 130.52C344.124 128.98 344.964 126.88 344.964 124.22C344.964 121.56 344.124 119.46 342.444 117.92C340.834 116.38 338.314 115.61 334.884 115.61H314.829L325.854 104.375V144.065ZM370.176 170L402.306 96.5H426.666L458.796 170H433.176L409.446 108.26H419.106L395.376 170H370.176ZM389.286 157.19L395.586 139.34H429.396L435.696 157.19H389.286ZM461.596 170V96.5H481.966L519.346 141.23H509.896V96.5H534.046V170H513.676L476.296 125.27H485.746V170H461.596ZM582.841 171.68C576.961 171.68 571.501 170.77 566.461 168.95C561.491 167.06 557.151 164.4 553.441 160.97C549.801 157.54 546.966 153.48 544.936 148.79C542.906 144.1 541.891 138.92 541.891 133.25C541.891 127.58 542.906 122.4 544.936 117.71C546.966 113.02 549.801 108.96 553.441 105.53C557.151 102.1 561.491 99.475 566.461 97.655C571.501 95.765 576.961 94.82 582.841 94.82C590.051 94.82 596.421 96.08 601.951 98.6C607.551 101.12 612.171 104.76 615.811 109.52L600.166 123.485C597.996 120.755 595.581 118.655 592.921 117.185C590.331 115.645 587.391 114.875 584.101 114.875C581.511 114.875 579.166 115.295 577.066 116.135C574.966 116.975 573.146 118.2 571.606 119.81C570.136 121.42 568.981 123.38 568.141 125.69C567.301 127.93 566.881 130.45 566.881 133.25C566.881 136.05 567.301 138.605 568.141 140.915C568.981 143.155 570.136 145.08 571.606 146.69C573.146 148.3 574.966 149.525 577.066 150.365C579.166 151.205 581.511 151.625 584.101 151.625C587.391 151.625 590.331 150.89 592.921 149.42C595.581 147.88 597.996 145.745 600.166 143.015L615.811 156.98C612.171 161.67 607.551 165.31 601.951 167.9C596.421 170.42 590.051 171.68 582.841 171.68ZM644.49 123.8H677.25V141.65H644.49V123.8ZM646.17 151.31H682.92V170H621.81V96.5H681.555V115.19H646.17V151.31Z" fill="white"/>
<path d="M167.303 202V193.211H163.818V190.1H174.8V193.211H171.315V202H167.303ZM182.765 202.272C181.802 202.272 180.907 202.119 180.079 201.813C179.263 201.507 178.555 201.076 177.954 200.521C177.354 199.954 176.883 199.291 176.543 198.532C176.215 197.773 176.05 196.945 176.05 196.05C176.05 195.143 176.215 194.316 176.543 193.568C176.883 192.809 177.354 192.151 177.954 191.596C178.555 191.029 179.263 190.593 180.079 190.287C180.907 189.981 181.802 189.828 182.765 189.828C183.74 189.828 184.635 189.981 185.451 190.287C186.267 190.593 186.976 191.029 187.576 191.596C188.177 192.151 188.642 192.809 188.97 193.568C189.31 194.316 189.48 195.143 189.48 196.05C189.48 196.945 189.31 197.773 188.97 198.532C188.642 199.291 188.177 199.954 187.576 200.521C186.976 201.076 186.267 201.507 185.451 201.813C184.635 202.119 183.74 202.272 182.765 202.272ZM182.765 199.025C183.139 199.025 183.485 198.957 183.802 198.821C184.131 198.685 184.414 198.492 184.652 198.243C184.902 197.982 185.094 197.671 185.23 197.308C185.366 196.934 185.434 196.515 185.434 196.05C185.434 195.585 185.366 195.172 185.23 194.809C185.094 194.435 184.902 194.123 184.652 193.874C184.414 193.613 184.131 193.415 183.802 193.279C183.485 193.143 183.139 193.075 182.765 193.075C182.391 193.075 182.04 193.143 181.711 193.279C181.394 193.415 181.111 193.613 180.861 193.874C180.623 194.123 180.436 194.435 180.3 194.809C180.164 195.172 180.096 195.585 180.096 196.05C180.096 196.515 180.164 196.934 180.3 197.308C180.436 197.671 180.623 197.982 180.861 198.243C181.111 198.492 181.394 198.685 181.711 198.821C182.04 198.957 182.391 199.025 182.765 199.025ZM194.332 202V196.781L195.25 199.178L189.844 190.1H194.077L197.732 196.305H195.267L198.956 190.1H202.832L197.46 199.178L198.344 196.781V202H194.332ZM209.915 202.272C208.952 202.272 208.057 202.119 207.229 201.813C206.413 201.507 205.705 201.076 205.104 200.521C204.504 199.954 204.033 199.291 203.693 198.532C203.365 197.773 203.2 196.945 203.2 196.05C203.2 195.143 203.365 194.316 203.693 193.568C204.033 192.809 204.504 192.151 205.104 191.596C205.705 191.029 206.413 190.593 207.229 190.287C208.057 189.981 208.952 189.828 209.915 189.828C210.89 189.828 211.785 189.981 212.601 190.287C213.417 190.593 214.126 191.029 214.726 191.596C215.327 192.151 215.792 192.809 216.12 193.568C216.46 194.316 216.63 195.143 216.63 196.05C216.63 196.945 216.46 197.773 216.12 198.532C215.792 199.291 215.327 199.954 214.726 200.521C214.126 201.076 213.417 201.507 212.601 201.813C211.785 202.119 210.89 202.272 209.915 202.272ZM209.915 199.025C210.289 199.025 210.635 198.957 210.952 198.821C211.281 198.685 211.564 198.492 211.802 198.243C212.052 197.982 212.244 197.671 212.38 197.308C212.516 196.934 212.584 196.515 212.584 196.05C212.584 195.585 212.516 195.172 212.38 194.809C212.244 194.435 212.052 194.123 211.802 193.874C211.564 193.613 211.281 193.415 210.952 193.279C210.635 193.143 210.289 193.075 209.915 193.075C209.541 193.075 209.19 193.143 208.861 193.279C208.544 193.415 208.261 193.613 208.011 193.874C207.773 194.123 207.586 194.435 207.45 194.809C207.314 195.172 207.246 195.585 207.246 196.05C207.246 196.515 207.314 196.934 207.45 197.308C207.586 197.671 207.773 197.982 208.011 198.243C208.261 198.492 208.544 198.685 208.861 198.821C209.19 198.957 209.541 199.025 209.915 199.025ZM221.355 202V193.211H217.87V190.1H228.852V193.211H225.367V202H221.355ZM228.854 202L234.056 190.1H238L243.202 202H239.054L235.212 192.004H236.776L232.934 202H228.854ZM231.948 199.926L232.968 197.036H238.442L239.462 199.926H231.948ZM254.379 195.166H259.615V198.192H254.379V195.166ZM254.651 202H250.639V190.1H260.312V193.126H254.651V202ZM268.585 202.272C267.622 202.272 266.727 202.119 265.899 201.813C265.083 201.507 264.375 201.076 263.774 200.521C263.174 199.954 262.703 199.291 262.363 198.532C262.035 197.773 261.87 196.945 261.87 196.05C261.87 195.143 262.035 194.316 262.363 193.568C262.703 192.809 263.174 192.151 263.774 191.596C264.375 191.029 265.083 190.593 265.899 190.287C266.727 189.981 267.622 189.828 268.585 189.828C269.56 189.828 270.455 189.981 271.271 190.287C272.087 190.593 272.796 191.029 273.396 191.596C273.997 192.151 274.462 192.809 274.79 193.568C275.13 194.316 275.3 195.143 275.3 196.05C275.3 196.945 275.13 197.773 274.79 198.532C274.462 199.291 273.997 199.954 273.396 200.521C272.796 201.076 272.087 201.507 271.271 201.813C270.455 202.119 269.56 202.272 268.585 202.272ZM268.585 199.025C268.959 199.025 269.305 198.957 269.622 198.821C269.951 198.685 270.234 198.492 270.472 198.243C270.722 197.982 270.914 197.671 271.05 197.308C271.186 196.934 271.254 196.515 271.254 196.05C271.254 195.585 271.186 195.172 271.05 194.809C270.914 194.435 270.722 194.123 270.472 193.874C270.234 193.613 269.951 193.415 269.622 193.279C269.305 193.143 268.959 193.075 268.585 193.075C268.211 193.075 267.86 193.143 267.531 193.279C267.214 193.415 266.931 193.613 266.681 193.874C266.443 194.123 266.256 194.435 266.12 194.809C265.984 195.172 265.916 195.585 265.916 196.05C265.916 196.515 265.984 196.934 266.12 197.308C266.256 197.671 266.443 197.982 266.681 198.243C266.931 198.492 267.214 198.685 267.531 198.821C267.86 198.957 268.211 199.025 268.585 199.025ZM277.607 202V190.1H283.336C284.446 190.1 285.404 190.281 286.209 190.644C287.025 191.007 287.654 191.528 288.096 192.208C288.538 192.877 288.759 193.67 288.759 194.588C288.759 195.506 288.538 196.299 288.096 196.968C287.654 197.625 287.025 198.13 286.209 198.481C285.404 198.832 284.446 199.008 283.336 199.008H279.834L281.619 197.359V202H277.607ZM284.73 202L281.806 197.665H286.056L289.014 202H284.73ZM281.619 197.801L279.834 195.982H283.081C283.636 195.982 284.044 195.857 284.305 195.608C284.577 195.359 284.713 195.019 284.713 194.588C284.713 194.157 284.577 193.817 284.305 193.568C284.044 193.319 283.636 193.194 283.081 193.194H279.834L281.619 191.375V197.801ZM294.71 199.45L294.489 195.047L298.977 190.1H303.346L298.314 195.642L296.087 197.92L294.71 199.45ZM291.123 202V190.1H295.067V202H291.123ZM298.943 202L295.441 197.376L298.042 194.622L303.584 202H298.943ZM304.973 202V190.1H308.985V198.889H314.357V202H304.973ZM316.315 202V190.1H320.327V202H316.315ZM326.848 195.166H332.084V198.192H326.848V195.166ZM327.12 202H323.108V190.1H332.781V193.126H327.12V202ZM337.566 202V193.211H334.081V190.1H345.063V193.211H341.578V202H337.566ZM355.961 202V196.781L356.879 199.178L351.473 190.1H355.706L359.361 196.305H356.896L360.585 190.1H364.461L359.089 199.178L359.973 196.781V202H355.961ZM369.493 194.52H374.797V197.41H369.493V194.52ZM369.765 198.974H375.715V202H365.821V190.1H375.494V193.126H369.765V198.974ZM376.817 202L382.019 190.1H385.963L391.165 202H387.017L383.175 192.004H384.739L380.897 202H376.817ZM379.911 199.926L380.931 197.036H386.405L387.425 199.926H379.911ZM392.655 202V190.1H398.384C399.495 190.1 400.453 190.281 401.257 190.644C402.073 191.007 402.702 191.528 403.144 192.208C403.586 192.877 403.807 193.67 403.807 194.588C403.807 195.506 403.586 196.299 403.144 196.968C402.702 197.625 402.073 198.13 401.257 198.481C400.453 198.832 399.495 199.008 398.384 199.008H394.882L396.667 197.359V202H392.655ZM399.778 202L396.854 197.665H401.104L404.062 202H399.778ZM396.667 197.801L394.882 195.982H398.129C398.685 195.982 399.093 195.857 399.353 195.608C399.625 195.359 399.761 195.019 399.761 194.588C399.761 194.157 399.625 193.817 399.353 193.568C399.093 193.319 398.685 193.194 398.129 193.194H394.882L396.667 191.375V197.801ZM405.885 198.532V195.642H410.985V198.532H405.885ZM417.235 194.52H422.539V197.41H417.235V194.52ZM417.507 198.974H423.457V202H413.563V190.1H423.236V193.126H417.507V198.974ZM425.852 202V190.1H429.15L435.202 197.342H433.672V190.1H437.582V202H434.284L428.232 194.758H429.762V202H425.852ZM440.365 202V190.1H446.23C447.556 190.1 448.723 190.344 449.732 190.831C450.741 191.307 451.528 191.987 452.095 192.871C452.662 193.755 452.945 194.809 452.945 196.033C452.945 197.268 452.662 198.334 452.095 199.229C451.528 200.113 450.741 200.799 449.732 201.286C448.723 201.762 447.556 202 446.23 202H440.365ZM444.377 198.872H446.06C446.627 198.872 447.12 198.764 447.539 198.549C447.97 198.334 448.304 198.016 448.542 197.597C448.78 197.166 448.899 196.645 448.899 196.033C448.899 195.432 448.78 194.922 448.542 194.503C448.304 194.084 447.97 193.766 447.539 193.551C447.12 193.336 446.627 193.228 446.06 193.228H444.377V198.872ZM464.878 194.52H470.182V197.41H464.878V194.52ZM465.15 198.974H471.1V202H461.206V190.1H470.879V193.126H465.15V198.974ZM477.069 202L472.037 190.1H476.355L480.452 200.147H477.885L482.101 190.1H486.045L481.013 202H477.069ZM490.966 194.52H496.27V197.41H490.966V194.52ZM491.238 198.974H497.188V202H487.294V190.1H496.967V193.126H491.238V198.974ZM499.583 202V190.1H502.881L508.933 197.342H507.403V190.1H511.313V202H508.015L501.963 194.758H503.493V202H499.583ZM516.68 202V193.211H513.195V190.1H524.177V193.211H520.692V202H516.68Z" fill="white"/>
</svg>
