<svg width="27" height="28" viewBox="0 0 27 28" fill="none" xmlns="http://www.w3.org/2000/svg">
<g clip-path="url(#clip0_18_1080)">
<path d="M13.5 27.5C20.9556 27.5 27 21.4556 27 14C27 6.54441 20.9556 0.5 13.5 0.5C6.04441 0.5 0 6.54441 0 14C0 21.4556 6.04441 27.5 13.5 27.5ZM21.0125 10.8755L12.5033 19.3847C11.8784 20.0096 10.868 20.0096 10.2495 19.3847L5.99484 15.1301C5.36994 14.5052 5.36994 13.4948 5.99484 12.8762C6.61975 12.2582 7.63014 12.2513 8.24871 12.8762L11.3732 16.0007L18.7523 8.61477C19.3772 7.98986 20.3876 7.98986 21.0062 8.61477C21.6243 9.23967 21.6311 10.2501 21.0062 10.8686L21.0131 10.8755H21.0125Z" fill="#FF6C0C"/>
</g>
<defs>
<clipPath id="clip0_18_1080">
<rect width="27" height="27" fill="white" transform="translate(0 0.5)"/>
</clipPath>
</defs>
</svg>
