<svg width="618" height="203" viewBox="0 0 618 203" fill="none" xmlns="http://www.w3.org/2000/svg">
<path d="M39.5732 97.984C32.2985 97.984 25.2718 97.1573 18.4932 95.504C11.7145 93.8507 6.13451 91.7013 1.75317 89.056L11.1772 67.728C15.3105 70.1253 19.8985 72.068 24.9412 73.556C30.0665 74.9613 35.0265 75.664 39.8212 75.664C42.6318 75.664 44.8225 75.4987 46.3932 75.168C48.0465 74.7547 49.2452 74.2173 49.9892 73.556C50.7332 72.812 51.1052 71.944 51.1052 70.952C51.1052 69.3813 50.2372 68.1413 48.5012 67.232C46.7652 66.3227 44.4505 65.5787 41.5572 65C38.7465 64.3387 35.6465 63.6773 32.2572 63.016C28.8678 62.272 25.4372 61.3213 21.9652 60.164C18.5758 59.0067 15.4345 57.4773 12.5412 55.576C9.73051 53.6747 7.45717 51.1947 5.72117 48.136C3.98517 44.9947 3.11717 41.1093 3.11717 36.48C3.11717 31.1067 4.60517 26.2293 7.58117 21.848C10.6398 17.384 15.1452 13.8293 21.0972 11.184C27.1318 8.53866 34.6132 7.216 43.5412 7.216C49.4105 7.216 55.1972 7.836 60.9012 9.076C66.6052 10.316 71.7305 12.2173 76.2772 14.78L67.4732 35.984C63.1745 33.8347 58.9998 32.2227 54.9492 31.148C50.9812 30.0733 47.0958 29.536 43.2932 29.536C40.4825 29.536 38.2505 29.784 36.5972 30.28C34.9438 30.776 33.7452 31.4373 33.0012 32.264C32.3398 33.0907 32.0092 34 32.0092 34.992C32.0092 36.48 32.8772 37.6787 34.6132 38.588C36.3492 39.4147 38.6225 40.1173 41.4332 40.696C44.3265 41.2747 47.4678 41.8947 50.8572 42.556C54.3292 43.2173 57.7598 44.1267 61.1492 45.284C64.5385 46.4413 67.6385 47.9707 70.4492 49.872C73.3425 51.7733 75.6572 54.2533 77.3932 57.312C79.1292 60.3707 79.9972 64.1733 79.9972 68.72C79.9972 74.0107 78.4678 78.888 75.4092 83.352C72.4332 87.7333 67.9692 91.288 62.0172 94.016C56.0652 96.6613 48.5838 97.984 39.5732 97.984ZM77.9173 96L115.861 9.19999H144.629L182.573 96H152.317L124.293 23.088H135.701L107.677 96H77.9173ZM100.485 80.872L107.925 59.792H147.853L155.293 80.872H100.485ZM208.195 96L171.491 9.19999H202.987L232.871 82.484H214.147L244.899 9.19999H273.667L236.963 96H208.195ZM301.999 41.44H340.687V62.52H301.999V41.44ZM303.983 73.928H347.383V96H275.215V9.19999H345.771V31.272H303.983V73.928ZM393.096 96V9.19999H439.472C451.459 9.19999 460.304 11.3493 466.008 15.648C471.712 19.864 474.564 25.2787 474.564 31.892C474.564 36.2733 473.324 40.2 470.844 43.672C468.447 47.0613 464.934 49.748 460.304 51.732C455.675 53.716 449.971 54.708 443.192 54.708L445.672 48.012C452.451 48.012 458.279 48.9627 463.156 50.864C468.116 52.7653 471.919 55.5347 474.564 59.172C477.292 62.7267 478.656 67.0253 478.656 72.068C478.656 79.5907 475.515 85.46 469.232 89.676C463.032 93.892 453.939 96 441.952 96H393.096ZM421.864 75.54H439.472C442.696 75.54 445.094 74.9613 446.664 73.804C448.318 72.6467 449.144 70.952 449.144 68.72C449.144 66.488 448.318 64.7933 446.664 63.636C445.094 62.4787 442.696 61.9 439.472 61.9H419.88V42.556H435.504C438.811 42.556 441.208 42.0187 442.696 40.944C444.267 39.7867 445.052 38.1747 445.052 36.108C445.052 33.9587 444.267 32.3467 442.696 31.272C441.208 30.1973 438.811 29.66 435.504 29.66H421.864V75.54ZM487.638 96V9.19999H516.902V96H487.638ZM574.638 97.984C567.611 97.984 561.122 96.9093 555.17 94.76C549.301 92.528 544.175 89.3867 539.794 85.336C535.495 81.2853 532.147 76.4907 529.75 70.952C527.353 65.4133 526.154 59.296 526.154 52.6C526.154 45.904 527.353 39.7867 529.75 34.248C532.147 28.7093 535.537 23.9147 539.918 19.864C544.299 15.8133 549.466 12.7133 555.418 10.564C561.453 8.332 568.066 7.216 575.258 7.216C583.855 7.216 591.502 8.66266 598.198 11.556C604.977 14.4493 610.557 18.5827 614.938 23.956L596.214 40.448C593.486 37.3067 590.51 34.9507 587.286 33.38C584.145 31.7267 580.631 30.9 576.746 30.9C573.522 30.9 570.587 31.396 567.942 32.388C565.379 33.38 563.189 34.8267 561.37 36.728C559.551 38.6293 558.146 40.9027 557.154 43.548C556.162 46.1933 555.666 49.2107 555.666 52.6C555.666 55.824 556.162 58.8 557.154 61.528C558.146 64.1733 559.551 66.4467 561.37 68.348C563.189 70.2493 565.338 71.7373 567.818 72.812C570.381 73.804 573.233 74.3 576.374 74.3C579.681 74.3 582.905 73.7627 586.046 72.688C589.187 71.5307 592.535 69.588 596.09 66.86L612.458 86.948C607.167 90.5027 601.133 93.2307 594.354 95.132C587.575 97.0333 581.003 97.984 574.638 97.984ZM587.038 83.228V50.244H612.458V86.948L587.038 83.228Z" fill="#FF6C0C"/>
<path d="M266.67 127L262.726 115.1H265.021L268.54 125.861H267.401L271.056 115.1H273.096L276.649 125.861H275.544L279.148 115.1H281.256L277.312 127H274.966L271.719 117.293H272.331L269.033 127H266.67ZM283.056 127V115.1H285.266V127H283.056ZM290.899 127V116.97H286.955V115.1H297.053V116.97H293.109V127H290.899ZM307.075 115.1H309.285V127H307.075V115.1ZM300.921 127H298.711V115.1H300.921V127ZM307.245 121.9H300.734V120.013H307.245V121.9ZM322.748 127.17C321.819 127.17 320.963 127.017 320.181 126.711C319.399 126.405 318.719 125.98 318.141 125.436C317.563 124.881 317.116 124.235 316.798 123.498C316.481 122.75 316.322 121.934 316.322 121.05C316.322 120.166 316.481 119.356 316.798 118.619C317.116 117.871 317.563 117.225 318.141 116.681C318.719 116.126 319.399 115.695 320.181 115.389C320.963 115.083 321.813 114.93 322.731 114.93C323.661 114.93 324.511 115.083 325.281 115.389C326.063 115.695 326.743 116.126 327.321 116.681C327.899 117.225 328.347 117.871 328.664 118.619C328.982 119.356 329.14 120.166 329.14 121.05C329.14 121.934 328.982 122.75 328.664 123.498C328.347 124.246 327.899 124.892 327.321 125.436C326.743 125.98 326.063 126.405 325.281 126.711C324.511 127.017 323.666 127.17 322.748 127.17ZM322.731 125.232C323.332 125.232 323.887 125.13 324.397 124.926C324.907 124.722 325.349 124.433 325.723 124.059C326.097 123.674 326.386 123.232 326.59 122.733C326.806 122.223 326.913 121.662 326.913 121.05C326.913 120.438 326.806 119.883 326.59 119.384C326.386 118.874 326.097 118.432 325.723 118.058C325.349 117.673 324.907 117.378 324.397 117.174C323.887 116.97 323.332 116.868 322.731 116.868C322.131 116.868 321.575 116.97 321.065 117.174C320.567 117.378 320.125 117.673 319.739 118.058C319.365 118.432 319.071 118.874 318.855 119.384C318.651 119.883 318.549 120.438 318.549 121.05C318.549 121.651 318.651 122.206 318.855 122.716C319.071 123.226 319.365 123.674 319.739 124.059C320.113 124.433 320.555 124.722 321.065 124.926C321.575 125.13 322.131 125.232 322.731 125.232ZM336.6 127.17C334.968 127.17 333.687 126.711 332.758 125.793C331.84 124.875 331.381 123.549 331.381 121.815V115.1H333.591V121.73C333.591 122.954 333.851 123.844 334.373 124.399C334.905 124.954 335.653 125.232 336.617 125.232C337.58 125.232 338.322 124.954 338.844 124.399C339.365 123.844 339.626 122.954 339.626 121.73V115.1H341.802V121.815C341.802 123.549 341.337 124.875 340.408 125.793C339.49 126.711 338.22 127.17 336.6 127.17ZM344.897 127V115.1H349.793C350.847 115.1 351.748 115.27 352.496 115.61C353.255 115.95 353.839 116.437 354.247 117.072C354.655 117.707 354.859 118.46 354.859 119.333C354.859 120.206 354.655 120.959 354.247 121.594C353.839 122.217 353.255 122.699 352.496 123.039C351.748 123.368 350.847 123.532 349.793 123.532H346.121L347.107 122.529V127H344.897ZM352.683 127L349.674 122.682H352.037L355.063 127H352.683ZM347.107 122.767L346.121 121.713H349.691C350.665 121.713 351.396 121.503 351.884 121.084C352.382 120.665 352.632 120.081 352.632 119.333C352.632 118.574 352.382 117.99 351.884 117.582C351.396 117.174 350.665 116.97 349.691 116.97H346.121L347.107 115.882V122.767Z" fill="white"/>
<path d="M52.3224 166V149.456H45.7624V143.6H66.4344V149.456H59.8744V166H52.3224ZM81.4274 166.512C79.614 166.512 77.9287 166.224 76.3714 165.648C74.8354 165.072 73.502 164.261 72.3714 163.216C71.2407 162.149 70.3554 160.901 69.7154 159.472C69.0967 158.043 68.7874 156.485 68.7874 154.8C68.7874 153.093 69.0967 151.536 69.7154 150.128C70.3554 148.699 71.2407 147.461 72.3714 146.416C73.502 145.349 74.8354 144.528 76.3714 143.952C77.9287 143.376 79.614 143.088 81.4274 143.088C83.262 143.088 84.9474 143.376 86.4834 143.952C88.0194 144.528 89.3527 145.349 90.4834 146.416C91.614 147.461 92.4887 148.699 93.1074 150.128C93.7474 151.536 94.0674 153.093 94.0674 154.8C94.0674 156.485 93.7474 158.043 93.1074 159.472C92.4887 160.901 91.614 162.149 90.4834 163.216C89.3527 164.261 88.0194 165.072 86.4834 165.648C84.9474 166.224 83.262 166.512 81.4274 166.512ZM81.4274 160.4C82.1314 160.4 82.782 160.272 83.3794 160.016C83.998 159.76 84.5314 159.397 84.9794 158.928C85.4487 158.437 85.8114 157.851 86.0674 157.168C86.3234 156.464 86.4514 155.675 86.4514 154.8C86.4514 153.925 86.3234 153.147 86.0674 152.464C85.8114 151.76 85.4487 151.173 84.9794 150.704C84.5314 150.213 83.998 149.84 83.3794 149.584C82.782 149.328 82.1314 149.2 81.4274 149.2C80.7234 149.2 80.062 149.328 79.4434 149.584C78.846 149.84 78.3127 150.213 77.8434 150.704C77.3954 151.173 77.0434 151.76 76.7874 152.464C76.5314 153.147 76.4034 153.925 76.4034 154.8C76.4034 155.675 76.5314 156.464 76.7874 157.168C77.0434 157.851 77.3954 158.437 77.8434 158.928C78.3127 159.397 78.846 159.76 79.4434 160.016C80.062 160.272 80.7234 160.4 81.4274 160.4ZM103.2 166V156.176L104.928 160.688L94.7516 143.6H102.72L109.6 155.28H104.96L111.904 143.6H119.2L109.088 160.688L110.752 156.176V166H103.2ZM132.534 166.512C130.72 166.512 129.035 166.224 127.478 165.648C125.942 165.072 124.608 164.261 123.478 163.216C122.347 162.149 121.462 160.901 120.822 159.472C120.203 158.043 119.894 156.485 119.894 154.8C119.894 153.093 120.203 151.536 120.822 150.128C121.462 148.699 122.347 147.461 123.478 146.416C124.608 145.349 125.942 144.528 127.478 143.952C129.035 143.376 130.72 143.088 132.534 143.088C134.368 143.088 136.054 143.376 137.59 143.952C139.126 144.528 140.459 145.349 141.59 146.416C142.72 147.461 143.595 148.699 144.214 150.128C144.854 151.536 145.174 153.093 145.174 154.8C145.174 156.485 144.854 158.043 144.214 159.472C143.595 160.901 142.72 162.149 141.59 163.216C140.459 164.261 139.126 165.072 137.59 165.648C136.054 166.224 134.368 166.512 132.534 166.512ZM132.534 160.4C133.238 160.4 133.888 160.272 134.486 160.016C135.104 159.76 135.638 159.397 136.086 158.928C136.555 158.437 136.918 157.851 137.174 157.168C137.43 156.464 137.558 155.675 137.558 154.8C137.558 153.925 137.43 153.147 137.174 152.464C136.918 151.76 136.555 151.173 136.086 150.704C135.638 150.213 135.104 149.84 134.486 149.584C133.888 149.328 133.238 149.2 132.534 149.2C131.83 149.2 131.168 149.328 130.55 149.584C129.952 149.84 129.419 150.213 128.95 150.704C128.502 151.173 128.15 151.76 127.894 152.464C127.638 153.147 127.51 153.925 127.51 154.8C127.51 155.675 127.638 156.464 127.894 157.168C128.15 157.851 128.502 158.437 128.95 158.928C129.419 159.397 129.952 159.76 130.55 160.016C131.168 160.272 131.83 160.4 132.534 160.4ZM154.066 166V149.456H147.506V143.6H168.178V149.456H161.618V166H154.066ZM168.183 166L177.975 143.6H185.399L195.191 166H187.383L180.151 147.184H183.095L175.863 166H168.183ZM174.007 162.096L175.927 156.656H186.231L188.151 162.096H174.007ZM216.23 153.136H226.086V158.832H216.23V153.136ZM216.742 166H209.19V143.6H227.398V149.296H216.742V166ZM242.971 166.512C241.158 166.512 239.472 166.224 237.915 165.648C236.379 165.072 235.046 164.261 233.915 163.216C232.784 162.149 231.899 160.901 231.259 159.472C230.64 158.043 230.331 156.485 230.331 154.8C230.331 153.093 230.64 151.536 231.259 150.128C231.899 148.699 232.784 147.461 233.915 146.416C235.046 145.349 236.379 144.528 237.915 143.952C239.472 143.376 241.158 143.088 242.971 143.088C244.806 143.088 246.491 143.376 248.027 143.952C249.563 144.528 250.896 145.349 252.027 146.416C253.158 147.461 254.032 148.699 254.651 150.128C255.291 151.536 255.611 153.093 255.611 154.8C255.611 156.485 255.291 158.043 254.651 159.472C254.032 160.901 253.158 162.149 252.027 163.216C250.896 164.261 249.563 165.072 248.027 165.648C246.491 166.224 244.806 166.512 242.971 166.512ZM242.971 160.4C243.675 160.4 244.326 160.272 244.923 160.016C245.542 159.76 246.075 159.397 246.523 158.928C246.992 158.437 247.355 157.851 247.611 157.168C247.867 156.464 247.995 155.675 247.995 154.8C247.995 153.925 247.867 153.147 247.611 152.464C247.355 151.76 246.992 151.173 246.523 150.704C246.075 150.213 245.542 149.84 244.923 149.584C244.326 149.328 243.675 149.2 242.971 149.2C242.267 149.2 241.606 149.328 240.987 149.584C240.39 149.84 239.856 150.213 239.387 150.704C238.939 151.173 238.587 151.76 238.331 152.464C238.075 153.147 237.947 153.925 237.947 154.8C237.947 155.675 238.075 156.464 238.331 157.168C238.587 157.851 238.939 158.437 239.387 158.928C239.856 159.397 240.39 159.76 240.987 160.016C241.606 160.272 242.267 160.4 242.971 160.4ZM259.952 166V143.6H270.736C272.827 143.6 274.629 143.941 276.144 144.624C277.68 145.307 278.864 146.288 279.696 147.568C280.528 148.827 280.944 150.32 280.944 152.048C280.944 153.776 280.528 155.269 279.696 156.528C278.864 157.765 277.68 158.715 276.144 159.376C274.629 160.037 272.827 160.368 270.736 160.368H264.144L267.504 157.264V166H259.952ZM273.36 166L267.856 157.84H275.856L281.424 166H273.36ZM267.504 158.096L264.144 154.672H270.256C271.301 154.672 272.069 154.437 272.56 153.968C273.072 153.499 273.328 152.859 273.328 152.048C273.328 151.237 273.072 150.597 272.56 150.128C272.069 149.659 271.301 149.424 270.256 149.424H264.144L267.504 146V158.096ZM292.148 161.2L291.732 152.912L300.18 143.6H308.404L298.932 154.032L294.74 158.32L292.148 161.2ZM285.396 166V143.6H292.82V166H285.396ZM300.116 166L293.524 157.296L298.42 152.112L308.852 166H300.116ZM311.465 166V143.6H319.017V160.144H329.129V166H311.465ZM332.815 166V143.6H340.367V166H332.815ZM352.642 153.136H362.498V158.832H352.642V153.136ZM353.154 166H345.602V143.6H363.81V149.296H353.154V166ZM372.816 166V149.456H366.256V143.6H386.928V149.456H380.368V166H372.816ZM408.723 153.136H418.579V158.832H408.723V153.136ZM409.235 166H401.683V143.6H419.891V149.296H409.235V166ZM420.633 166L430.425 143.6H437.849L447.641 166H439.833L432.601 147.184H435.545L428.313 166H420.633ZM426.457 162.096L428.377 156.656H438.681L440.601 162.096H426.457ZM461.717 166.512C459.925 166.512 458.261 166.235 456.725 165.68C455.211 165.104 453.888 164.293 452.757 163.248C451.648 162.203 450.784 160.965 450.165 159.536C449.547 158.107 449.237 156.528 449.237 154.8C449.237 153.072 449.547 151.493 450.165 150.064C450.784 148.635 451.648 147.397 452.757 146.352C453.888 145.307 455.211 144.507 456.725 143.952C458.261 143.376 459.925 143.088 461.717 143.088C463.915 143.088 465.856 143.472 467.541 144.24C469.248 145.008 470.656 146.117 471.765 147.568L466.997 151.824C466.336 150.992 465.6 150.352 464.789 149.904C464 149.435 463.104 149.2 462.101 149.2C461.312 149.2 460.597 149.328 459.957 149.584C459.317 149.84 458.763 150.213 458.293 150.704C457.845 151.195 457.493 151.792 457.237 152.496C456.981 153.179 456.853 153.947 456.853 154.8C456.853 155.653 456.981 156.432 457.237 157.136C457.493 157.819 457.845 158.405 458.293 158.896C458.763 159.387 459.317 159.76 459.957 160.016C460.597 160.272 461.312 160.4 462.101 160.4C463.104 160.4 464 160.176 464.789 159.728C465.6 159.259 466.336 158.608 466.997 157.776L471.765 162.032C470.656 163.461 469.248 164.571 467.541 165.36C465.856 166.128 463.915 166.512 461.717 166.512ZM480.254 166V149.456H473.694V143.6H494.366V149.456H487.806V166H480.254ZM509.359 166.512C507.545 166.512 505.86 166.224 504.303 165.648C502.767 165.072 501.433 164.261 500.303 163.216C499.172 162.149 498.287 160.901 497.647 159.472C497.028 158.043 496.719 156.485 496.719 154.8C496.719 153.093 497.028 151.536 497.647 150.128C498.287 148.699 499.172 147.461 500.303 146.416C501.433 145.349 502.767 144.528 504.303 143.952C505.86 143.376 507.545 143.088 509.359 143.088C511.193 143.088 512.879 143.376 514.415 143.952C515.951 144.528 517.284 145.349 518.415 146.416C519.545 147.461 520.42 148.699 521.039 150.128C521.679 151.536 521.999 153.093 521.999 154.8C521.999 156.485 521.679 158.043 521.039 159.472C520.42 160.901 519.545 162.149 518.415 163.216C517.284 164.261 515.951 165.072 514.415 165.648C512.879 166.224 511.193 166.512 509.359 166.512ZM509.359 160.4C510.063 160.4 510.713 160.272 511.311 160.016C511.929 159.76 512.463 159.397 512.911 158.928C513.38 158.437 513.743 157.851 513.999 157.168C514.255 156.464 514.383 155.675 514.383 154.8C514.383 153.925 514.255 153.147 513.999 152.464C513.743 151.76 513.38 151.173 512.911 150.704C512.463 150.213 511.929 149.84 511.311 149.584C510.713 149.328 510.063 149.2 509.359 149.2C508.655 149.2 507.993 149.328 507.375 149.584C506.777 149.84 506.244 150.213 505.775 150.704C505.327 151.173 504.975 151.76 504.719 152.464C504.463 153.147 504.335 153.925 504.335 154.8C504.335 155.675 504.463 156.464 504.719 157.168C504.975 157.851 505.327 158.437 505.775 158.928C506.244 159.397 506.777 159.76 507.375 160.016C507.993 160.272 508.655 160.4 509.359 160.4ZM526.34 166V143.6H537.124C539.214 143.6 541.017 143.941 542.532 144.624C544.068 145.307 545.252 146.288 546.084 147.568C546.916 148.827 547.332 150.32 547.332 152.048C547.332 153.776 546.916 155.269 546.084 156.528C545.252 157.765 544.068 158.715 542.532 159.376C541.017 160.037 539.214 160.368 537.124 160.368H530.532L533.892 157.264V166H526.34ZM539.748 166L534.244 157.84H542.244L547.812 166H539.748ZM533.892 158.096L530.532 154.672H536.644C537.689 154.672 538.457 154.437 538.948 153.968C539.46 153.499 539.716 152.859 539.716 152.048C539.716 151.237 539.46 150.597 538.948 150.128C538.457 149.659 537.689 149.424 536.644 149.424H530.532L533.892 146V158.096ZM557.231 166V156.176L558.959 160.688L548.783 143.6H556.751L563.631 155.28H558.991L565.935 143.6H573.231L563.119 160.688L564.783 156.176V166H557.231ZM157.383 198.512C155.591 198.512 153.927 198.235 152.391 197.68C150.876 197.104 149.554 196.293 148.423 195.248C147.314 194.203 146.45 192.965 145.831 191.536C145.212 190.107 144.903 188.528 144.903 186.8C144.903 185.072 145.212 183.493 145.831 182.064C146.45 180.635 147.314 179.397 148.423 178.352C149.554 177.307 150.876 176.507 152.391 175.952C153.927 175.376 155.591 175.088 157.383 175.088C159.58 175.088 161.522 175.472 163.207 176.24C164.914 177.008 166.322 178.117 167.431 179.568L162.663 183.824C162.002 182.992 161.266 182.352 160.455 181.904C159.666 181.435 158.77 181.2 157.767 181.2C156.978 181.2 156.263 181.328 155.623 181.584C154.983 181.84 154.428 182.213 153.959 182.704C153.511 183.195 153.159 183.792 152.903 184.496C152.647 185.179 152.519 185.947 152.519 186.8C152.519 187.653 152.647 188.432 152.903 189.136C153.159 189.819 153.511 190.405 153.959 190.896C154.428 191.387 154.983 191.76 155.623 192.016C156.263 192.272 156.978 192.4 157.767 192.4C158.77 192.4 159.666 192.176 160.455 191.728C161.266 191.259 162.002 190.608 162.663 189.776L167.431 194.032C166.322 195.461 164.914 196.571 163.207 197.36C161.522 198.128 159.58 198.512 157.383 198.512ZM171.212 198V175.6H178.764V192.144H188.876V198H171.212ZM199.474 183.92H209.458V189.36H199.474V183.92ZM199.986 192.304H211.186V198H192.562V175.6H210.77V181.296H199.986V192.304ZM213.261 198L223.053 175.6H230.477L240.269 198H232.461L225.229 179.184H228.173L220.941 198H213.261ZM219.085 194.096L221.005 188.656H231.309L233.229 194.096H219.085ZM243.074 198V175.6H253.858C255.949 175.6 257.751 175.941 259.266 176.624C260.802 177.307 261.986 178.288 262.818 179.568C263.65 180.827 264.066 182.32 264.066 184.048C264.066 185.776 263.65 187.269 262.818 188.528C261.986 189.765 260.802 190.715 259.266 191.376C257.751 192.037 255.949 192.368 253.858 192.368H247.266L250.626 189.264V198H243.074ZM256.482 198L250.978 189.84H258.978L264.546 198H256.482ZM250.626 190.096L247.266 186.672H253.378C254.423 186.672 255.191 186.437 255.682 185.968C256.194 185.499 256.45 184.859 256.45 184.048C256.45 183.237 256.194 182.597 255.682 182.128C255.191 181.659 254.423 181.424 253.378 181.424H247.266L250.626 178V190.096ZM266.086 198L275.878 175.6H283.302L293.094 198H285.286L278.054 179.184H280.998L273.766 198H266.086ZM271.91 194.096L273.83 188.656H284.134L286.054 194.096H271.91ZM295.899 198V175.6H302.107L313.499 189.232H310.619V175.6H317.979V198H311.771L300.379 184.368H303.259V198H295.899ZM334.802 198.512C333.01 198.512 331.346 198.235 329.81 197.68C328.295 197.104 326.972 196.293 325.842 195.248C324.732 194.203 323.868 192.965 323.25 191.536C322.631 190.107 322.322 188.528 322.322 186.8C322.322 185.072 322.631 183.493 323.25 182.064C323.868 180.635 324.732 179.397 325.842 178.352C326.972 177.307 328.295 176.507 329.81 175.952C331.346 175.376 333.01 175.088 334.802 175.088C336.999 175.088 338.94 175.472 340.626 176.24C342.332 177.008 343.74 178.117 344.85 179.568L340.082 183.824C339.42 182.992 338.684 182.352 337.874 181.904C337.084 181.435 336.188 181.2 335.186 181.2C334.396 181.2 333.682 181.328 333.042 181.584C332.402 181.84 331.847 182.213 331.378 182.704C330.93 183.195 330.578 183.792 330.322 184.496C330.066 185.179 329.938 185.947 329.938 186.8C329.938 187.653 330.066 188.432 330.322 189.136C330.578 189.819 330.93 190.405 331.378 190.896C331.847 191.387 332.402 191.76 333.042 192.016C333.682 192.272 334.396 192.4 335.186 192.4C336.188 192.4 337.084 192.176 337.874 191.728C338.684 191.259 339.42 190.608 340.082 189.776L344.85 194.032C343.74 195.461 342.332 196.571 340.626 197.36C338.94 198.128 336.999 198.512 334.802 198.512ZM355.542 183.92H365.526V189.36H355.542V183.92ZM356.054 192.304H367.254V198H348.63V175.6H366.838V181.296H356.054V192.304ZM391.307 198.512C389.43 198.512 387.617 198.299 385.867 197.872C384.118 197.445 382.678 196.891 381.547 196.208L383.979 190.704C385.046 191.323 386.23 191.824 387.531 192.208C388.854 192.571 390.134 192.752 391.371 192.752C392.097 192.752 392.662 192.709 393.067 192.624C393.494 192.517 393.803 192.379 393.995 192.208C394.187 192.016 394.283 191.792 394.283 191.536C394.283 191.131 394.059 190.811 393.611 190.576C393.163 190.341 392.566 190.149 391.819 190C391.094 189.829 390.294 189.659 389.419 189.488C388.545 189.296 387.659 189.051 386.763 188.752C385.889 188.453 385.078 188.059 384.331 187.568C383.606 187.077 383.019 186.437 382.571 185.648C382.123 184.837 381.899 183.835 381.899 182.64C381.899 181.253 382.283 179.995 383.051 178.864C383.841 177.712 385.003 176.795 386.539 176.112C388.097 175.429 390.027 175.088 392.331 175.088C393.846 175.088 395.339 175.248 396.811 175.568C398.283 175.888 399.606 176.379 400.779 177.04L398.507 182.512C397.398 181.957 396.321 181.541 395.275 181.264C394.251 180.987 393.249 180.848 392.267 180.848C391.542 180.848 390.966 180.912 390.539 181.04C390.113 181.168 389.803 181.339 389.611 181.552C389.441 181.765 389.355 182 389.355 182.256C389.355 182.64 389.579 182.949 390.027 183.184C390.475 183.397 391.062 183.579 391.787 183.728C392.534 183.877 393.345 184.037 394.219 184.208C395.115 184.379 396.001 184.613 396.875 184.912C397.75 185.211 398.55 185.605 399.275 186.096C400.022 186.587 400.619 187.227 401.067 188.016C401.515 188.805 401.739 189.787 401.739 190.96C401.739 192.325 401.345 193.584 400.555 194.736C399.787 195.867 398.635 196.784 397.099 197.488C395.563 198.171 393.633 198.512 391.307 198.512ZM403.155 198L412.947 175.6H420.371L430.163 198H422.355L415.123 179.184H418.067L410.835 198H403.155ZM408.979 194.096L410.899 188.656H421.203L423.123 194.096H408.979ZM432.968 198V175.6H440.52V192.144H450.632V198H432.968ZM461.23 183.92H471.214V189.36H461.23V183.92ZM461.742 192.304H472.942V198H454.318V175.6H472.526V181.296H461.742V192.304Z" fill="white"/>
</svg>
