<svg width="618" height="196" viewBox="0 0 618 196" fill="none" xmlns="http://www.w3.org/2000/svg">
<path d="M39.5732 94.984C32.2985 94.984 25.2718 94.1573 18.4932 92.504C11.7145 90.8507 6.13451 88.7013 1.75317 86.056L11.1772 64.728C15.3105 67.1253 19.8985 69.068 24.9412 70.556C30.0665 71.9613 35.0265 72.664 39.8212 72.664C42.6318 72.664 44.8225 72.4987 46.3932 72.168C48.0465 71.7547 49.2452 71.2173 49.9892 70.556C50.7332 69.812 51.1052 68.944 51.1052 67.952C51.1052 66.3813 50.2372 65.1413 48.5012 64.232C46.7652 63.3227 44.4505 62.5787 41.5572 62C38.7465 61.3387 35.6465 60.6773 32.2572 60.016C28.8678 59.272 25.4372 58.3213 21.9652 57.164C18.5758 56.0067 15.4345 54.4773 12.5412 52.576C9.73051 50.6747 7.45717 48.1947 5.72117 45.136C3.98517 41.9947 3.11717 38.1093 3.11717 33.48C3.11717 28.1067 4.60517 23.2293 7.58117 18.848C10.6398 14.384 15.1452 10.8293 21.0972 8.184C27.1318 5.53866 34.6132 4.216 43.5412 4.216C49.4105 4.216 55.1972 4.836 60.9012 6.076C66.6052 7.31599 71.7305 9.21733 76.2772 11.78L67.4732 32.984C63.1745 30.8347 58.9998 29.2227 54.9492 28.148C50.9812 27.0733 47.0958 26.536 43.2932 26.536C40.4825 26.536 38.2505 26.784 36.5972 27.28C34.9438 27.776 33.7452 28.4373 33.0012 29.264C32.3398 30.0907 32.0092 31 32.0092 31.992C32.0092 33.48 32.8772 34.6787 34.6132 35.588C36.3492 36.4147 38.6225 37.1173 41.4332 37.696C44.3265 38.2747 47.4678 38.8947 50.8572 39.556C54.3292 40.2173 57.7598 41.1267 61.1492 42.284C64.5385 43.4413 67.6385 44.9707 70.4492 46.872C73.3425 48.7733 75.6572 51.2533 77.3932 54.312C79.1292 57.3707 79.9972 61.1733 79.9972 65.72C79.9972 71.0107 78.4678 75.888 75.4092 80.352C72.4332 84.7333 67.9692 88.288 62.0172 91.016C56.0652 93.6613 48.5838 94.984 39.5732 94.984ZM77.9173 93L115.861 6.19999H144.629L182.573 93H152.317L124.293 20.088H135.701L107.677 93H77.9173ZM100.485 77.872L107.925 56.792H147.853L155.293 77.872H100.485ZM208.195 93L171.491 6.19999H202.987L232.871 79.484H214.147L244.899 6.19999H273.667L236.963 93H208.195ZM301.999 38.44H340.687V59.52H301.999V38.44ZM303.983 70.928H347.383V93H275.215V6.19999H345.771V28.272H303.983V70.928ZM393.096 93V6.19999H439.472C451.459 6.19999 460.304 8.34933 466.008 12.648C471.712 16.864 474.564 22.2787 474.564 28.892C474.564 33.2733 473.324 37.2 470.844 40.672C468.447 44.0613 464.934 46.748 460.304 48.732C455.675 50.716 449.971 51.708 443.192 51.708L445.672 45.012C452.451 45.012 458.279 45.9627 463.156 47.864C468.116 49.7653 471.919 52.5347 474.564 56.172C477.292 59.7267 478.656 64.0253 478.656 69.068C478.656 76.5907 475.515 82.46 469.232 86.676C463.032 90.892 453.939 93 441.952 93H393.096ZM421.864 72.54H439.472C442.696 72.54 445.094 71.9613 446.664 70.804C448.318 69.6467 449.144 67.952 449.144 65.72C449.144 63.488 448.318 61.7933 446.664 60.636C445.094 59.4787 442.696 58.9 439.472 58.9H419.88V39.556H435.504C438.811 39.556 441.208 39.0187 442.696 37.944C444.267 36.7867 445.052 35.1747 445.052 33.108C445.052 30.9587 444.267 29.3467 442.696 28.272C441.208 27.1973 438.811 26.66 435.504 26.66H421.864V72.54ZM487.638 93V6.19999H516.902V93H487.638ZM574.638 94.984C567.611 94.984 561.122 93.9093 555.17 91.76C549.301 89.528 544.175 86.3867 539.794 82.336C535.495 78.2853 532.147 73.4907 529.75 67.952C527.353 62.4133 526.154 56.296 526.154 49.6C526.154 42.904 527.353 36.7867 529.75 31.248C532.147 25.7093 535.537 20.9147 539.918 16.864C544.299 12.8133 549.466 9.71333 555.418 7.564C561.453 5.332 568.066 4.216 575.258 4.216C583.855 4.216 591.502 5.66266 598.198 8.55599C604.977 11.4493 610.557 15.5827 614.938 20.956L596.214 37.448C593.486 34.3067 590.51 31.9507 587.286 30.38C584.145 28.7267 580.631 27.9 576.746 27.9C573.522 27.9 570.587 28.396 567.942 29.388C565.379 30.38 563.189 31.8267 561.37 33.728C559.551 35.6293 558.146 37.9027 557.154 40.548C556.162 43.1933 555.666 46.2107 555.666 49.6C555.666 52.824 556.162 55.8 557.154 58.528C558.146 61.1733 559.551 63.4467 561.37 65.348C563.189 67.2493 565.338 68.7373 567.818 69.812C570.381 70.804 573.233 71.3 576.374 71.3C579.681 71.3 582.905 70.7627 586.046 69.688C589.187 68.5307 592.535 66.588 596.09 63.86L612.458 83.948C607.167 87.5027 601.133 90.2307 594.354 92.132C587.575 94.0333 581.003 94.984 574.638 94.984ZM587.038 80.228V47.244H612.458V83.948L587.038 80.228Z" fill="white"/>
<path d="M261.69 122L257.282 108.7H259.847L263.78 120.727H262.507L266.592 108.7H268.872L272.843 120.727H271.608L275.636 108.7H277.992L273.584 122H270.962L267.333 111.151H268.017L264.331 122H261.69ZM280.004 122V108.7H282.474V122H280.004ZM288.769 122V110.79H284.361V108.7H295.647V110.79H291.239V122H288.769ZM306.849 108.7H309.319V122H306.849V108.7ZM299.971 122H297.501V108.7H299.971V122ZM307.039 116.3H299.762V114.191H307.039V116.3ZM324.366 122.19C323.327 122.19 322.371 122.019 321.497 121.677C320.623 121.335 319.863 120.86 319.217 120.252C318.571 119.631 318.07 118.909 317.716 118.086C317.361 117.25 317.184 116.338 317.184 115.35C317.184 114.362 317.361 113.456 317.716 112.633C318.07 111.797 318.571 111.075 319.217 110.467C319.863 109.846 320.623 109.365 321.497 109.023C322.371 108.681 323.321 108.51 324.347 108.51C325.385 108.51 326.335 108.681 327.197 109.023C328.071 109.365 328.831 109.846 329.477 110.467C330.123 111.075 330.623 111.797 330.978 112.633C331.332 113.456 331.51 114.362 331.51 115.35C331.51 116.338 331.332 117.25 330.978 118.086C330.623 118.922 330.123 119.644 329.477 120.252C328.831 120.86 328.071 121.335 327.197 121.677C326.335 122.019 325.392 122.19 324.366 122.19ZM324.347 120.024C325.018 120.024 325.639 119.91 326.209 119.682C326.779 119.454 327.273 119.131 327.691 118.713C328.109 118.282 328.432 117.788 328.66 117.231C328.9 116.661 329.021 116.034 329.021 115.35C329.021 114.666 328.9 114.045 328.66 113.488C328.432 112.918 328.109 112.424 327.691 112.006C327.273 111.575 326.779 111.246 326.209 111.018C325.639 110.79 325.018 110.676 324.347 110.676C323.675 110.676 323.055 110.79 322.485 111.018C321.927 111.246 321.433 111.575 321.003 112.006C320.585 112.424 320.255 112.918 320.015 113.488C319.787 114.045 319.673 114.666 319.673 115.35C319.673 116.021 319.787 116.642 320.015 117.212C320.255 117.782 320.585 118.282 321.003 118.713C321.421 119.131 321.915 119.454 322.485 119.682C323.055 119.91 323.675 120.024 324.347 120.024ZM339.847 122.19C338.023 122.19 336.591 121.677 335.553 120.651C334.527 119.625 334.014 118.143 334.014 116.205V108.7H336.484V116.11C336.484 117.478 336.775 118.472 337.358 119.093C337.953 119.714 338.789 120.024 339.866 120.024C340.942 120.024 341.772 119.714 342.355 119.093C342.937 118.472 343.229 117.478 343.229 116.11V108.7H345.661V116.205C345.661 118.143 345.141 119.625 344.103 120.651C343.077 121.677 341.658 122.19 339.847 122.19ZM349.12 122V108.7H354.592C355.77 108.7 356.777 108.89 357.613 109.27C358.462 109.65 359.114 110.195 359.57 110.904C360.026 111.613 360.254 112.456 360.254 113.431C360.254 114.406 360.026 115.249 359.57 115.958C359.114 116.655 358.462 117.193 357.613 117.573C356.777 117.94 355.77 118.124 354.592 118.124H350.488L351.59 117.003V122H349.12ZM357.822 122L354.459 117.174H357.1L360.482 122H357.822ZM351.59 117.269L350.488 116.091H354.478C355.567 116.091 356.384 115.857 356.929 115.388C357.486 114.919 357.765 114.267 357.765 113.431C357.765 112.582 357.486 111.93 356.929 111.474C356.384 111.018 355.567 110.79 354.478 110.79H350.488L351.59 109.574V117.269Z" fill="white"/>
<path d="M52.3224 159V142.456H45.7624V136.6H66.4344V142.456H59.8744V159H52.3224ZM81.4274 159.512C79.614 159.512 77.9287 159.224 76.3714 158.648C74.8354 158.072 73.502 157.261 72.3714 156.216C71.2407 155.149 70.3554 153.901 69.7154 152.472C69.0967 151.043 68.7874 149.485 68.7874 147.8C68.7874 146.093 69.0967 144.536 69.7154 143.128C70.3554 141.699 71.2407 140.461 72.3714 139.416C73.502 138.349 74.8354 137.528 76.3714 136.952C77.9287 136.376 79.614 136.088 81.4274 136.088C83.262 136.088 84.9474 136.376 86.4834 136.952C88.0194 137.528 89.3527 138.349 90.4834 139.416C91.614 140.461 92.4887 141.699 93.1074 143.128C93.7474 144.536 94.0674 146.093 94.0674 147.8C94.0674 149.485 93.7474 151.043 93.1074 152.472C92.4887 153.901 91.614 155.149 90.4834 156.216C89.3527 157.261 88.0194 158.072 86.4834 158.648C84.9474 159.224 83.262 159.512 81.4274 159.512ZM81.4274 153.4C82.1314 153.4 82.782 153.272 83.3794 153.016C83.998 152.76 84.5314 152.397 84.9794 151.928C85.4487 151.437 85.8114 150.851 86.0674 150.168C86.3234 149.464 86.4514 148.675 86.4514 147.8C86.4514 146.925 86.3234 146.147 86.0674 145.464C85.8114 144.76 85.4487 144.173 84.9794 143.704C84.5314 143.213 83.998 142.84 83.3794 142.584C82.782 142.328 82.1314 142.2 81.4274 142.2C80.7234 142.2 80.062 142.328 79.4434 142.584C78.846 142.84 78.3127 143.213 77.8434 143.704C77.3954 144.173 77.0434 144.76 76.7874 145.464C76.5314 146.147 76.4034 146.925 76.4034 147.8C76.4034 148.675 76.5314 149.464 76.7874 150.168C77.0434 150.851 77.3954 151.437 77.8434 151.928C78.3127 152.397 78.846 152.76 79.4434 153.016C80.062 153.272 80.7234 153.4 81.4274 153.4ZM103.2 159V149.176L104.928 153.688L94.7516 136.6H102.72L109.6 148.28H104.96L111.904 136.6H119.2L109.088 153.688L110.752 149.176V159H103.2ZM132.534 159.512C130.72 159.512 129.035 159.224 127.478 158.648C125.942 158.072 124.608 157.261 123.478 156.216C122.347 155.149 121.462 153.901 120.822 152.472C120.203 151.043 119.894 149.485 119.894 147.8C119.894 146.093 120.203 144.536 120.822 143.128C121.462 141.699 122.347 140.461 123.478 139.416C124.608 138.349 125.942 137.528 127.478 136.952C129.035 136.376 130.72 136.088 132.534 136.088C134.368 136.088 136.054 136.376 137.59 136.952C139.126 137.528 140.459 138.349 141.59 139.416C142.72 140.461 143.595 141.699 144.214 143.128C144.854 144.536 145.174 146.093 145.174 147.8C145.174 149.485 144.854 151.043 144.214 152.472C143.595 153.901 142.72 155.149 141.59 156.216C140.459 157.261 139.126 158.072 137.59 158.648C136.054 159.224 134.368 159.512 132.534 159.512ZM132.534 153.4C133.238 153.4 133.888 153.272 134.486 153.016C135.104 152.76 135.638 152.397 136.086 151.928C136.555 151.437 136.918 150.851 137.174 150.168C137.43 149.464 137.558 148.675 137.558 147.8C137.558 146.925 137.43 146.147 137.174 145.464C136.918 144.76 136.555 144.173 136.086 143.704C135.638 143.213 135.104 142.84 134.486 142.584C133.888 142.328 133.238 142.2 132.534 142.2C131.83 142.2 131.168 142.328 130.55 142.584C129.952 142.84 129.419 143.213 128.95 143.704C128.502 144.173 128.15 144.76 127.894 145.464C127.638 146.147 127.51 146.925 127.51 147.8C127.51 148.675 127.638 149.464 127.894 150.168C128.15 150.851 128.502 151.437 128.95 151.928C129.419 152.397 129.952 152.76 130.55 153.016C131.168 153.272 131.83 153.4 132.534 153.4ZM154.066 159V142.456H147.506V136.6H168.178V142.456H161.618V159H154.066ZM168.183 159L177.975 136.6H185.399L195.191 159H187.383L180.151 140.184H183.095L175.863 159H168.183ZM174.007 155.096L175.927 149.656H186.231L188.151 155.096H174.007ZM216.23 146.136H226.086V151.832H216.23V146.136ZM216.742 159H209.19V136.6H227.398V142.296H216.742V159ZM242.971 159.512C241.158 159.512 239.472 159.224 237.915 158.648C236.379 158.072 235.046 157.261 233.915 156.216C232.784 155.149 231.899 153.901 231.259 152.472C230.64 151.043 230.331 149.485 230.331 147.8C230.331 146.093 230.64 144.536 231.259 143.128C231.899 141.699 232.784 140.461 233.915 139.416C235.046 138.349 236.379 137.528 237.915 136.952C239.472 136.376 241.158 136.088 242.971 136.088C244.806 136.088 246.491 136.376 248.027 136.952C249.563 137.528 250.896 138.349 252.027 139.416C253.158 140.461 254.032 141.699 254.651 143.128C255.291 144.536 255.611 146.093 255.611 147.8C255.611 149.485 255.291 151.043 254.651 152.472C254.032 153.901 253.158 155.149 252.027 156.216C250.896 157.261 249.563 158.072 248.027 158.648C246.491 159.224 244.806 159.512 242.971 159.512ZM242.971 153.4C243.675 153.4 244.326 153.272 244.923 153.016C245.542 152.76 246.075 152.397 246.523 151.928C246.992 151.437 247.355 150.851 247.611 150.168C247.867 149.464 247.995 148.675 247.995 147.8C247.995 146.925 247.867 146.147 247.611 145.464C247.355 144.76 246.992 144.173 246.523 143.704C246.075 143.213 245.542 142.84 244.923 142.584C244.326 142.328 243.675 142.2 242.971 142.2C242.267 142.2 241.606 142.328 240.987 142.584C240.39 142.84 239.856 143.213 239.387 143.704C238.939 144.173 238.587 144.76 238.331 145.464C238.075 146.147 237.947 146.925 237.947 147.8C237.947 148.675 238.075 149.464 238.331 150.168C238.587 150.851 238.939 151.437 239.387 151.928C239.856 152.397 240.39 152.76 240.987 153.016C241.606 153.272 242.267 153.4 242.971 153.4ZM259.952 159V136.6H270.736C272.827 136.6 274.629 136.941 276.144 137.624C277.68 138.307 278.864 139.288 279.696 140.568C280.528 141.827 280.944 143.32 280.944 145.048C280.944 146.776 280.528 148.269 279.696 149.528C278.864 150.765 277.68 151.715 276.144 152.376C274.629 153.037 272.827 153.368 270.736 153.368H264.144L267.504 150.264V159H259.952ZM273.36 159L267.856 150.84H275.856L281.424 159H273.36ZM267.504 151.096L264.144 147.672H270.256C271.301 147.672 272.069 147.437 272.56 146.968C273.072 146.499 273.328 145.859 273.328 145.048C273.328 144.237 273.072 143.597 272.56 143.128C272.069 142.659 271.301 142.424 270.256 142.424H264.144L267.504 139V151.096ZM292.148 154.2L291.732 145.912L300.18 136.6H308.404L298.932 147.032L294.74 151.32L292.148 154.2ZM285.396 159V136.6H292.82V159H285.396ZM300.116 159L293.524 150.296L298.42 145.112L308.852 159H300.116ZM311.465 159V136.6H319.017V153.144H329.129V159H311.465ZM332.815 159V136.6H340.367V159H332.815ZM352.642 146.136H362.498V151.832H352.642V146.136ZM353.154 159H345.602V136.6H363.81V142.296H353.154V159ZM372.816 159V142.456H366.256V136.6H386.928V142.456H380.368V159H372.816ZM408.723 146.136H418.579V151.832H408.723V146.136ZM409.235 159H401.683V136.6H419.891V142.296H409.235V159ZM420.633 159L430.425 136.6H437.849L447.641 159H439.833L432.601 140.184H435.545L428.313 159H420.633ZM426.457 155.096L428.377 149.656H438.681L440.601 155.096H426.457ZM461.717 159.512C459.925 159.512 458.261 159.235 456.725 158.68C455.211 158.104 453.888 157.293 452.757 156.248C451.648 155.203 450.784 153.965 450.165 152.536C449.547 151.107 449.237 149.528 449.237 147.8C449.237 146.072 449.547 144.493 450.165 143.064C450.784 141.635 451.648 140.397 452.757 139.352C453.888 138.307 455.211 137.507 456.725 136.952C458.261 136.376 459.925 136.088 461.717 136.088C463.915 136.088 465.856 136.472 467.541 137.24C469.248 138.008 470.656 139.117 471.765 140.568L466.997 144.824C466.336 143.992 465.6 143.352 464.789 142.904C464 142.435 463.104 142.2 462.101 142.2C461.312 142.2 460.597 142.328 459.957 142.584C459.317 142.84 458.763 143.213 458.293 143.704C457.845 144.195 457.493 144.792 457.237 145.496C456.981 146.179 456.853 146.947 456.853 147.8C456.853 148.653 456.981 149.432 457.237 150.136C457.493 150.819 457.845 151.405 458.293 151.896C458.763 152.387 459.317 152.76 459.957 153.016C460.597 153.272 461.312 153.4 462.101 153.4C463.104 153.4 464 153.176 464.789 152.728C465.6 152.259 466.336 151.608 466.997 150.776L471.765 155.032C470.656 156.461 469.248 157.571 467.541 158.36C465.856 159.128 463.915 159.512 461.717 159.512ZM480.254 159V142.456H473.694V136.6H494.366V142.456H487.806V159H480.254ZM509.359 159.512C507.545 159.512 505.86 159.224 504.303 158.648C502.767 158.072 501.433 157.261 500.303 156.216C499.172 155.149 498.287 153.901 497.647 152.472C497.028 151.043 496.719 149.485 496.719 147.8C496.719 146.093 497.028 144.536 497.647 143.128C498.287 141.699 499.172 140.461 500.303 139.416C501.433 138.349 502.767 137.528 504.303 136.952C505.86 136.376 507.545 136.088 509.359 136.088C511.193 136.088 512.879 136.376 514.415 136.952C515.951 137.528 517.284 138.349 518.415 139.416C519.545 140.461 520.42 141.699 521.039 143.128C521.679 144.536 521.999 146.093 521.999 147.8C521.999 149.485 521.679 151.043 521.039 152.472C520.42 153.901 519.545 155.149 518.415 156.216C517.284 157.261 515.951 158.072 514.415 158.648C512.879 159.224 511.193 159.512 509.359 159.512ZM509.359 153.4C510.063 153.4 510.713 153.272 511.311 153.016C511.929 152.76 512.463 152.397 512.911 151.928C513.38 151.437 513.743 150.851 513.999 150.168C514.255 149.464 514.383 148.675 514.383 147.8C514.383 146.925 514.255 146.147 513.999 145.464C513.743 144.76 513.38 144.173 512.911 143.704C512.463 143.213 511.929 142.84 511.311 142.584C510.713 142.328 510.063 142.2 509.359 142.2C508.655 142.2 507.993 142.328 507.375 142.584C506.777 142.84 506.244 143.213 505.775 143.704C505.327 144.173 504.975 144.76 504.719 145.464C504.463 146.147 504.335 146.925 504.335 147.8C504.335 148.675 504.463 149.464 504.719 150.168C504.975 150.851 505.327 151.437 505.775 151.928C506.244 152.397 506.777 152.76 507.375 153.016C507.993 153.272 508.655 153.4 509.359 153.4ZM526.34 159V136.6H537.124C539.214 136.6 541.017 136.941 542.532 137.624C544.068 138.307 545.252 139.288 546.084 140.568C546.916 141.827 547.332 143.32 547.332 145.048C547.332 146.776 546.916 148.269 546.084 149.528C545.252 150.765 544.068 151.715 542.532 152.376C541.017 153.037 539.214 153.368 537.124 153.368H530.532L533.892 150.264V159H526.34ZM539.748 159L534.244 150.84H542.244L547.812 159H539.748ZM533.892 151.096L530.532 147.672H536.644C537.689 147.672 538.457 147.437 538.948 146.968C539.46 146.499 539.716 145.859 539.716 145.048C539.716 144.237 539.46 143.597 538.948 143.128C538.457 142.659 537.689 142.424 536.644 142.424H530.532L533.892 139V151.096ZM557.231 159V149.176L558.959 153.688L548.783 136.6H556.751L563.631 148.28H558.991L565.935 136.6H573.231L563.119 153.688L564.783 149.176V159H557.231ZM157.383 191.512C155.591 191.512 153.927 191.235 152.391 190.68C150.876 190.104 149.554 189.293 148.423 188.248C147.314 187.203 146.45 185.965 145.831 184.536C145.212 183.107 144.903 181.528 144.903 179.8C144.903 178.072 145.212 176.493 145.831 175.064C146.45 173.635 147.314 172.397 148.423 171.352C149.554 170.307 150.876 169.507 152.391 168.952C153.927 168.376 155.591 168.088 157.383 168.088C159.58 168.088 161.522 168.472 163.207 169.24C164.914 170.008 166.322 171.117 167.431 172.568L162.663 176.824C162.002 175.992 161.266 175.352 160.455 174.904C159.666 174.435 158.77 174.2 157.767 174.2C156.978 174.2 156.263 174.328 155.623 174.584C154.983 174.84 154.428 175.213 153.959 175.704C153.511 176.195 153.159 176.792 152.903 177.496C152.647 178.179 152.519 178.947 152.519 179.8C152.519 180.653 152.647 181.432 152.903 182.136C153.159 182.819 153.511 183.405 153.959 183.896C154.428 184.387 154.983 184.76 155.623 185.016C156.263 185.272 156.978 185.4 157.767 185.4C158.77 185.4 159.666 185.176 160.455 184.728C161.266 184.259 162.002 183.608 162.663 182.776L167.431 187.032C166.322 188.461 164.914 189.571 163.207 190.36C161.522 191.128 159.58 191.512 157.383 191.512ZM171.212 191V168.6H178.764V185.144H188.876V191H171.212ZM199.474 176.92H209.458V182.36H199.474V176.92ZM199.986 185.304H211.186V191H192.562V168.6H210.77V174.296H199.986V185.304ZM213.261 191L223.053 168.6H230.477L240.269 191H232.461L225.229 172.184H228.173L220.941 191H213.261ZM219.085 187.096L221.005 181.656H231.309L233.229 187.096H219.085ZM243.074 191V168.6H253.858C255.949 168.6 257.751 168.941 259.266 169.624C260.802 170.307 261.986 171.288 262.818 172.568C263.65 173.827 264.066 175.32 264.066 177.048C264.066 178.776 263.65 180.269 262.818 181.528C261.986 182.765 260.802 183.715 259.266 184.376C257.751 185.037 255.949 185.368 253.858 185.368H247.266L250.626 182.264V191H243.074ZM256.482 191L250.978 182.84H258.978L264.546 191H256.482ZM250.626 183.096L247.266 179.672H253.378C254.423 179.672 255.191 179.437 255.682 178.968C256.194 178.499 256.45 177.859 256.45 177.048C256.45 176.237 256.194 175.597 255.682 175.128C255.191 174.659 254.423 174.424 253.378 174.424H247.266L250.626 171V183.096ZM266.086 191L275.878 168.6H283.302L293.094 191H285.286L278.054 172.184H280.998L273.766 191H266.086ZM271.91 187.096L273.83 181.656H284.134L286.054 187.096H271.91ZM295.899 191V168.6H302.107L313.499 182.232H310.619V168.6H317.979V191H311.771L300.379 177.368H303.259V191H295.899ZM334.802 191.512C333.01 191.512 331.346 191.235 329.81 190.68C328.295 190.104 326.972 189.293 325.842 188.248C324.732 187.203 323.868 185.965 323.25 184.536C322.631 183.107 322.322 181.528 322.322 179.8C322.322 178.072 322.631 176.493 323.25 175.064C323.868 173.635 324.732 172.397 325.842 171.352C326.972 170.307 328.295 169.507 329.81 168.952C331.346 168.376 333.01 168.088 334.802 168.088C336.999 168.088 338.94 168.472 340.626 169.24C342.332 170.008 343.74 171.117 344.85 172.568L340.082 176.824C339.42 175.992 338.684 175.352 337.874 174.904C337.084 174.435 336.188 174.2 335.186 174.2C334.396 174.2 333.682 174.328 333.042 174.584C332.402 174.84 331.847 175.213 331.378 175.704C330.93 176.195 330.578 176.792 330.322 177.496C330.066 178.179 329.938 178.947 329.938 179.8C329.938 180.653 330.066 181.432 330.322 182.136C330.578 182.819 330.93 183.405 331.378 183.896C331.847 184.387 332.402 184.76 333.042 185.016C333.682 185.272 334.396 185.4 335.186 185.4C336.188 185.4 337.084 185.176 337.874 184.728C338.684 184.259 339.42 183.608 340.082 182.776L344.85 187.032C343.74 188.461 342.332 189.571 340.626 190.36C338.94 191.128 336.999 191.512 334.802 191.512ZM355.542 176.92H365.526V182.36H355.542V176.92ZM356.054 185.304H367.254V191H348.63V168.6H366.838V174.296H356.054V185.304ZM391.307 191.512C389.43 191.512 387.617 191.299 385.867 190.872C384.118 190.445 382.678 189.891 381.547 189.208L383.979 183.704C385.046 184.323 386.23 184.824 387.531 185.208C388.854 185.571 390.134 185.752 391.371 185.752C392.097 185.752 392.662 185.709 393.067 185.624C393.494 185.517 393.803 185.379 393.995 185.208C394.187 185.016 394.283 184.792 394.283 184.536C394.283 184.131 394.059 183.811 393.611 183.576C393.163 183.341 392.566 183.149 391.819 183C391.094 182.829 390.294 182.659 389.419 182.488C388.545 182.296 387.659 182.051 386.763 181.752C385.889 181.453 385.078 181.059 384.331 180.568C383.606 180.077 383.019 179.437 382.571 178.648C382.123 177.837 381.899 176.835 381.899 175.64C381.899 174.253 382.283 172.995 383.051 171.864C383.841 170.712 385.003 169.795 386.539 169.112C388.097 168.429 390.027 168.088 392.331 168.088C393.846 168.088 395.339 168.248 396.811 168.568C398.283 168.888 399.606 169.379 400.779 170.04L398.507 175.512C397.398 174.957 396.321 174.541 395.275 174.264C394.251 173.987 393.249 173.848 392.267 173.848C391.542 173.848 390.966 173.912 390.539 174.04C390.113 174.168 389.803 174.339 389.611 174.552C389.441 174.765 389.355 175 389.355 175.256C389.355 175.64 389.579 175.949 390.027 176.184C390.475 176.397 391.062 176.579 391.787 176.728C392.534 176.877 393.345 177.037 394.219 177.208C395.115 177.379 396.001 177.613 396.875 177.912C397.75 178.211 398.55 178.605 399.275 179.096C400.022 179.587 400.619 180.227 401.067 181.016C401.515 181.805 401.739 182.787 401.739 183.96C401.739 185.325 401.345 186.584 400.555 187.736C399.787 188.867 398.635 189.784 397.099 190.488C395.563 191.171 393.633 191.512 391.307 191.512ZM403.155 191L412.947 168.6H420.371L430.163 191H422.355L415.123 172.184H418.067L410.835 191H403.155ZM408.979 187.096L410.899 181.656H421.203L423.123 187.096H408.979ZM432.968 191V168.6H440.52V185.144H450.632V191H432.968ZM461.23 176.92H471.214V182.36H461.23V176.92ZM461.742 185.304H472.942V191H454.318V168.6H472.526V174.296H461.742V185.304Z" fill="white"/>
</svg>
